<svg version="1.1" xmlns="http://www.w3.org/2000/svg" xmlns:xlink="http://www.w3.org/1999/xlink" x="0px" y="0px"
	 width="779.01px" height="361.867px" viewBox="0 0 779.01 361.867">
<g>
	<g>
		<rect x="7.164" y="214.129" style="fill:#CCCCCC;" width="9.739" height="4.764"/>
		<rect x="14.985" y="213.559" style="fill:#CCCCCC;" width="49.588" height="5.903"/>
		<path style="fill:#CCCCCC;" d="M5.245,213.41h6.346v6.199H5.245c-1.711,0-3.099-1.388-3.099-3.099
			C2.146,214.799,3.534,213.41,5.245,213.41z"/>
		<path style="fill:#CCCCCC;" d="M47.156,209.594c0.073-0.004,0.147-0.013,0.224-0.013h38.852c2.234,0,4.043,2.069,4.043,4.62v4.619
			c0,2.552-1.809,4.619-4.043,4.619H47.38c-0.076,0-0.15-0.008-0.224-0.012V209.594z"/>
	</g>
	<g>
		<path style="fill:#CCCCCC;" d="M124.541,283.885c-11.735,0-21.25-9.514-21.25-21.252s9.515-21.252,21.25-21.252v4.039
			c-9.507,0-17.212,7.705-17.212,17.213s7.705,17.213,17.212,17.213V283.885z"/>
		<path style="fill:#CCCCCC;" d="M108.889,231.293c0,9.506,6.146,21.758,15.652,21.758v4.037c-11.735,0-19.691-14.057-19.691-25.795
			"/>
		<path style="fill:#CCCCCC;" d="M108.854,231.601c0-11.737-11.074-16.707-22.812-16.707v4.038c9.507,0,18.772,3.162,18.772,12.669
			H108.854z"/>
		<path style="fill:#CCCCCC;" d="M124.541,310.68c-11.735,0-21.25-9.516-21.25-21.252s9.515-21.25,21.25-21.25v4.037
			c-9.507,0-17.212,7.707-17.212,17.213c0,9.508,7.705,17.215,17.212,17.215V310.68z"/>
		<path style="fill:#CCCCCC;" d="M124.541,337.475c-11.735,0-21.25-9.514-21.25-21.252c0-11.736,9.515-21.252,21.25-21.252v4.039
			c-9.507,0-17.212,7.707-17.212,17.213c0,9.508,7.705,17.215,17.212,17.215V337.475z"/>
		<path style="fill:#CCCCCC;" d="M124.337,283.855c4.536,0,8.213-3.506,8.213-7.826c0-4.324-3.677-7.828-8.213-7.828l0.089,4.018
			c2.269,0,4.018,1.648,4.018,3.811c0,2.16-1.826,3.812-4.094,3.812L124.337,283.855z"/>
		<path style="fill:#CCCCCC;" d="M124.337,257.061c4.536,0,8.213-3.506,8.213-7.828s-3.677-7.826-8.213-7.826l0.089,4.018
			c2.269,0,4.018,1.648,4.018,3.809s-1.826,3.814-4.094,3.814L124.337,257.061z"/>
		<path style="fill:#CCCCCC;" d="M124.337,310.65c4.536,0,8.213-3.504,8.213-7.828c0-4.32-3.677-7.826-8.213-7.826l0.089,4.018
			c2.269,0,4.018,1.65,4.018,3.809c0,2.162-1.826,3.814-4.094,3.814L124.337,310.65z"/>
	</g>
	<g>
		<path d="M123.773,282.729c-11.738,0-21.253-9.514-21.253-21.252c0-11.736,9.515-21.25,21.253-21.25v4.037
			c-9.508,0-17.215,7.707-17.215,17.213c0,9.51,7.707,17.215,17.215,17.215V282.729z"/>
		<path d="M108.117,230.139c0,9.506,6.148,21.758,15.656,21.758v4.037c-11.738,0-19.694-14.059-19.694-25.795"/>
		<path d="M108.084,230.445c0-11.736-11.074-16.707-22.812-16.707v4.038c9.507,0,18.773,3.162,18.773,12.669H108.084z"/>
		<path d="M123.773,309.525c-11.738,0-21.253-9.516-21.253-21.252c0-11.738,9.515-21.252,21.253-21.252v4.037
			c-9.508,0-17.215,7.707-17.215,17.215c0,9.506,7.707,17.215,17.215,17.215V309.525z"/>
		<path d="M123.773,336.32c-11.738,0-21.253-9.516-21.253-21.252s9.515-21.252,21.253-21.252v4.039
			c-9.508,0-17.215,7.707-17.215,17.213c0,9.508,7.707,17.215,17.215,17.215V336.32z"/>
		<path d="M123.567,282.699c4.536,0,8.213-3.504,8.213-7.826s-3.677-7.828-8.213-7.828l0.089,4.018c2.268,0,4.018,1.65,4.018,3.811
			s-1.826,3.814-4.095,3.814L123.567,282.699z"/>
		<path d="M123.567,255.904c4.536,0,8.213-3.504,8.213-7.826s-3.677-7.826-8.213-7.826l0.089,4.018c2.268,0,4.018,1.646,4.018,3.809
			c0,2.16-1.826,3.812-4.095,3.812L123.567,255.904z"/>
		<path d="M123.567,309.494c4.536,0,8.213-3.502,8.213-7.826c0-4.32-3.677-7.826-8.213-7.826l0.089,4.018
			c2.268,0,4.018,1.648,4.018,3.809c0,2.162-1.826,3.814-4.095,3.814L123.567,309.494z"/>
	</g>
	<g>
		<g>
			<rect x="197.36" y="332.701" style="fill:#CCCCCC;" width="9.74" height="4.764"/>
			<rect x="149.691" y="332.131" style="fill:#CCCCCC;" width="49.588" height="5.904"/>
			<path style="fill:#CCCCCC;" d="M209.019,331.984h-6.346v6.197h6.346c1.712,0,3.099-1.387,3.099-3.1
				C212.117,333.371,210.73,331.984,209.019,331.984z"/>
			<path style="fill:#CCCCCC;" d="M167.109,328.166c-0.074-0.004-0.147-0.014-0.225-0.014h-38.853c-2.232,0-4.042,2.07-4.042,4.621
				v4.619c0,2.551,1.81,4.619,4.042,4.619h38.853c0.077,0,0.15-0.008,0.225-0.012V328.166z"/>
		</g>
		<rect x="196.206" y="331.547" width="9.739" height="4.762"/>
		<rect x="148.537" y="330.977" style="fill:#FFFFFF;stroke:#555555;" width="49.587" height="5.904"/>
		<path style="fill:#FFFFFF;stroke:#555555;" d="M207.864,330.83h-6.346v6.197h6.346c1.711,0,3.099-1.389,3.099-3.1
			C210.963,332.215,209.575,330.83,207.864,330.83z"/>
		<path d="M165.953,327.01c-0.073-0.004-0.147-0.012-0.224-0.012h-38.852c-2.233,0-4.043,2.07-4.043,4.621v4.619
			c0,2.551,1.81,4.619,4.043,4.619h38.852c0.076,0,0.15-0.01,0.224-0.012V327.01z"/>
	</g>
	<g>
		<rect x="6.009" y="212.975" width="9.74" height="4.763"/>
		<rect x="13.831" y="212.404" style="fill:#FFFFFF;stroke:#555555;" width="49.588" height="5.902"/>
		<path style="fill:#FFFFFF;stroke:#555555;" d="M4.091,212.256h6.345v6.198H4.091c-1.712,0-3.099-1.387-3.099-3.099
			S2.379,212.256,4.091,212.256z"/>
		<path d="M46,208.438c0.075-0.005,0.149-0.013,0.225-0.013h38.853c2.232,0,4.043,2.068,4.043,4.62v4.62
			c0,2.551-1.811,4.619-4.043,4.619H46.225c-0.075,0-0.149-0.008-0.225-0.012V208.438z"/>
	</g>
</g>
<g>
	<g>
		<g>
			<rect x="106.689" y="175.119" width="10.283" height="5.029"/>
			<polygon style="fill:#FFFFFF;stroke:#555555;" points="114.948,180.749 170.273,180.913 170.273,174.354 114.948,174.518 			"/>
			<path style="fill:#FFFFFF;stroke:#555555;" d="M104.665,174.361h6.698v6.545h-6.698c-1.808,0-3.768-1.369-3.768-3.273
				C100.897,175.731,102.857,174.361,104.665,174.361z"/>
		</g>
		<path d="M200.271,172.255h-19.836c-0.494-0.901-1.342-1.497-2.306-1.497h-2.791v1.875h-1.251v-1.875h-1.584v1.875h-1.249v-1.875
			h-1.584v1.875h-1.251v-1.875h-1.583v1.875h-1.25v-1.875h-1.584v1.875h-1.25v-1.875h-1.584v1.875h-1.25v-1.875h-1.584v1.875h-1.25
			v-1.875H155.5v1.875h-1.25v-1.875h-1.584v1.875h-1.25v-1.875h-1.583v1.875h-1.251v-1.875h-1.583v1.875h-1.251v-1.875h-1.583v1.875
			h-1.251v-1.875h-1.583v1.875h-1.251v-1.875h-8.931c-1.526,0-2.764,1.492-2.764,3.334v7.084c0,1.841,1.237,3.334,2.764,3.334h8.515
			v-2.154h1.25v2.154h1.584v-2.154h1.25v2.154h1.584v-2.154h1.25v2.154h1.583v-2.154h1.251v2.154H151v-2.154h1.25v2.154h1.583
			v-2.154h1.25v2.154h1.584v-2.154h1.251v2.154h1.583v-2.154h1.251v2.154h1.583v-2.154h1.25v2.154h1.583v-2.154h1.251v2.154h1.584
			v-2.154h1.25v2.154h1.583v-2.154h1.251v2.154h1.583v-2.154h1.251v2.154h3.208c0.964,0,1.812-0.596,2.306-1.498h19.836
			c1.726,0,3.125-2.408,3.125-5.377C203.396,174.663,201.996,172.255,200.271,172.255z"/>
	</g>
	<g>
		<path style="fill:#CCCCCC;" d="M330.026,327.05c0,1.472,0.69,2.664,1.541,2.664h25.893c0.851,0,1.541-1.192,1.541-2.664l0,0
			c0-1.471-0.69-2.664-1.541-2.664h-25.893C330.717,324.386,330.026,325.579,330.026,327.05L330.026,327.05z"/>
		<path style="fill:#CCCCCC;" d="M333.429,328.897c0,2.332,1.26,4.223,2.815,4.223h2.463c1.555,0,2.815-1.891,2.815-4.223v-3.695
			c0-2.331-1.261-4.223-2.815-4.223h-2.463c-1.556,0-2.815,1.892-2.815,4.223V328.897z"/>
		<path style="fill:#1A1A1A;" d="M276.831,320.236h16.75c0.417-1.142,1.133-1.896,1.947-1.896h2.357v2.375h1.055v-2.375h1.338v2.375
			h1.056v-2.375h1.337v2.375h1.057v-2.375h1.336v2.375h1.057v-2.375h1.337v2.375h1.057v-2.375h1.337v2.375h1.056v-2.375h1.337v2.375
			h1.056v-2.375h1.338v2.375h1.057v-2.375h1.336v2.375h1.057v-2.375h1.337v2.375h1.056v-2.375h1.338v2.375h1.055v-2.375h1.338v2.375
			h1.056v-2.375h1.337v2.375h1.057v-2.375h7.542c1.288,0,2.334,1.891,2.334,4.223v8.973c0,2.333-1.046,4.224-2.334,4.224h-7.19
			v-2.729h-1.056v2.729h-1.337v-2.729h-1.057v2.729h-1.337v-2.729h-1.056v2.729h-1.338v-2.729h-1.056v2.729h-1.338v-2.729h-1.056
			v2.729h-1.337v-2.729h-1.056v2.729h-1.337v-2.729h-1.056v2.729h-1.338v-2.729h-1.056v2.729h-1.337v-2.729h-1.056v2.729h-1.338
			v-2.729h-1.055v2.729h-1.338v-2.729h-1.055v2.729h-1.339v-2.729h-1.056v2.729h-1.337v-2.729h-1.056v2.729h-2.709
			c-0.814,0-1.53-0.754-1.947-1.896h-16.75c-1.458,0-2.64-3.052-2.64-6.813S275.373,320.236,276.831,320.236z"/>
	</g>
	<g>
		<path d="M237.709,246.05c-12.079,0-21.869-9.79-21.869-21.868s9.79-21.867,21.869-21.867v4.154
			c-9.783,0-17.714,7.93-17.714,17.713c0,9.784,7.931,17.713,17.714,17.713V246.05z"/>
		<path d="M221.599,191.934c0,9.783,6.327,22.389,16.11,22.389v4.155c-12.079,0-20.267-14.468-20.267-26.544"/>
		<path d="M221.564,192.25c0-12.077-11.396-17.192-23.473-17.192v4.156c9.782,0,19.317,3.254,19.317,13.036H221.564z"/>
		<path d="M237.709,273.624c-12.079,0-21.869-9.792-21.869-21.869c0-12.078,9.79-21.869,21.869-21.869v4.156
			c-9.783,0-17.714,7.93-17.714,17.713c0,9.782,7.931,17.714,17.714,17.714V273.624z"/>
		<path d="M237.709,301.194c-12.079,0-21.869-9.79-21.869-21.868c0-12.077,9.79-21.867,21.869-21.867v4.155
			c-9.783,0-17.714,7.931-17.714,17.712c0,9.784,7.931,17.714,17.714,17.714V301.194z"/>
		<path d="M237.497,246.019c4.668,0,8.451-3.604,8.451-8.053c0-4.447-3.783-8.055-8.451-8.055l0.091,4.134
			c2.334,0,4.135,1.697,4.135,3.921c0,2.222-1.879,3.925-4.214,3.925L237.497,246.019z"/>
		<path d="M237.497,218.447c4.668,0,8.451-3.606,8.451-8.054s-3.783-8.054-8.451-8.054l0.091,4.135c2.334,0,4.135,1.695,4.135,3.919
			s-1.879,3.924-4.214,3.924L237.497,218.447z"/>
		<path d="M237.497,273.591c4.668,0,8.451-3.604,8.451-8.053c0-4.446-3.783-8.053-8.451-8.053l0.091,4.134
			c2.334,0,4.135,1.695,4.135,3.919s-1.879,3.926-4.214,3.926L237.497,273.591z"/>
	</g>
	<path d="M259.805,314.183c0-12.077-11.396-17.192-23.473-17.192v4.156c9.783,0,19.318,3.254,19.318,13.036H259.805z"/>
	<path d="M255.539,311.566c-0.179,12.087,11.396,17.192,23.473,17.192v-4.156c-9.782,0-19.45-3.429-19.45-13.212L255.539,311.566z"
		/>
	<path d="M257.2,330.812c0,12.077,11.396,17.192,23.474,17.192v-4.156c-9.783,0-19.318-3.254-19.318-13.036H257.2z"/>
	<g>
		<path style="fill:#CCCCCC;" d="M325.806,351.985c-0.185,1.46,0.35,2.73,1.193,2.837l25.688,3.251
			c0.844,0.106,1.678-0.99,1.862-2.45l0,0c0.185-1.459-0.35-2.729-1.194-2.836l-25.688-3.25
			C326.824,349.431,325.99,350.527,325.806,351.985L325.806,351.985z"/>
		<path style="fill:#CCCCCC;" d="M328.948,354.247c-0.294,2.313,0.72,4.348,2.263,4.543l2.444,0.309
			c1.542,0.196,3.029-1.522,3.323-3.836l0.464-3.665c0.292-2.315-0.722-4.349-2.264-4.544l-2.443-0.309
			c-1.543-0.195-3.03,1.521-3.323,3.836L328.948,354.247z"/>
		<path style="fill:#666666;" d="M273.885,338.55l16.618,2.104c0.557-1.081,1.362-1.74,2.169-1.638l2.34,0.296l-0.298,2.356
			l1.046,0.133l0.299-2.357l1.326,0.169l-0.298,2.355l1.047,0.133l0.299-2.356l1.326,0.168l-0.298,2.356l1.048,0.133l0.298-2.356
			l1.326,0.168l-0.298,2.356l1.048,0.133l0.298-2.356l1.327,0.168l-0.299,2.355l1.048,0.133l0.298-2.356l1.327,0.168l-0.299,2.356
			l1.048,0.133l0.298-2.357l1.327,0.169l-0.298,2.356l1.048,0.132l0.298-2.356l1.326,0.168l-0.298,2.356l1.047,0.132l0.298-2.355
			l1.327,0.168l-0.298,2.356l1.047,0.132l0.298-2.355l1.327,0.168l-0.299,2.356l1.048,0.132l0.298-2.355l1.327,0.167l-0.298,2.356
			l1.047,0.132l0.299-2.355l1.326,0.167l-0.298,2.357l1.047,0.132l0.299-2.356l1.327,0.168l-0.298,2.356l1.047,0.133l0.298-2.356
			l7.482,0.947c1.279,0.162,2.078,2.168,1.785,4.482l-1.126,8.901c-0.293,2.313-1.567,4.059-2.846,3.896l-7.134-0.901l0.344-2.707
			l-1.048-0.133l-0.343,2.706l-1.326-0.167l0.342-2.707l-1.048-0.132l-0.342,2.706l-1.326-0.168l0.342-2.707l-1.048-0.132
			l-0.342,2.707l-1.326-0.169l0.342-2.706l-1.048-0.133l-0.343,2.707l-1.326-0.169l0.342-2.705l-1.047-0.134l-0.343,2.707
			l-1.326-0.168l0.342-2.706l-1.047-0.133l-0.343,2.707l-1.326-0.168l0.343-2.707l-1.048-0.132l-0.343,2.706l-1.326-0.168
			l0.343-2.707l-1.048-0.132l-0.343,2.706l-1.326-0.168l0.342-2.706l-1.047-0.133l-0.343,2.707l-1.327-0.169l0.343-2.705
			l-1.048-0.133l-0.342,2.706l-1.326-0.168l0.343-2.706l-1.049-0.133l-0.342,2.706l-1.326-0.167l0.342-2.707l-1.048-0.133
			l-0.342,2.707l-1.326-0.168l0.342-2.706l-1.048-0.133l-0.342,2.706l-2.688-0.341c-0.809-0.102-1.423-0.939-1.694-2.126
			l-16.617-2.103c-1.446-0.183-2.235-3.356-1.764-7.089C270.884,341.246,272.438,338.368,273.885,338.55z"/>
	</g>
	<polygon points="261.37,331.331 257.2,331.326 257.075,315.937 260.849,319.194 	"/>
</g>
<g>
	<g>
		<path d="M412.393,292.67c-12.079,0-21.869-9.791-21.869-21.869s9.79-21.867,21.869-21.867v4.154
			c-9.783,0-17.714,7.93-17.714,17.713c0,9.785,7.931,17.713,17.714,17.713V292.67z"/>
		<path d="M396.283,238.553c0,9.783,6.327,22.389,16.11,22.389v4.156c-12.079,0-20.267-14.469-20.267-26.545"/>
		<path d="M396.249,238.869c0-12.076-11.396-17.191-23.473-17.191v4.156c9.782,0,19.317,3.254,19.317,13.035H396.249z"/>
		<path d="M412.393,320.244c-12.079,0-21.869-9.793-21.869-21.869c0-12.078,9.79-21.869,21.869-21.869v4.156
			c-9.783,0-17.714,7.93-17.714,17.713c0,9.781,7.931,17.713,17.714,17.713V320.244z"/>
		<path d="M412.393,347.814c-12.079,0-21.869-9.791-21.869-21.869c0-12.076,9.79-21.867,21.869-21.867v4.156
			c-9.783,0-17.714,7.93-17.714,17.711c0,9.785,7.931,17.715,17.714,17.715V347.814z"/>
		<path d="M412.181,292.639c4.668,0,8.451-3.605,8.451-8.053s-3.783-8.055-8.451-8.055l0.091,4.133c2.334,0,4.135,1.697,4.135,3.922
			c0,2.221-1.879,3.924-4.214,3.924L412.181,292.639z"/>
		<path d="M412.181,265.066c4.668,0,8.451-3.605,8.451-8.053s-3.783-8.055-8.451-8.055l0.091,4.135c2.334,0,4.135,1.695,4.135,3.92
			c0,2.223-1.879,3.924-4.214,3.924L412.181,265.066z"/>
		<path d="M412.181,320.211c4.668,0,8.451-3.604,8.451-8.053c0-4.447-3.783-8.053-8.451-8.053l0.091,4.133
			c2.334,0,4.135,1.695,4.135,3.92c0,2.223-1.879,3.926-4.214,3.926L412.181,320.211z"/>
	</g>
	<g>
		<rect x="294.855" y="215.27" style="fill:#CCCCCC;" width="25.6" height="16.368"/>
		<rect x="295.496" y="215.678" style="fill:#808080;" width="25.6" height="15.551"/>
		<rect x="296.776" y="215.187" style="fill:#B3B3B3;" width="25.6" height="16.534"/>
		<g>
			<rect x="305.756" y="216.797" style="fill:#1A1A1A;" width="2.731" height="3.072"/>
			<rect x="305.756" y="227.037" style="fill:#1A1A1A;" width="2.731" height="3.072"/>
		</g>
		<path d="M371.976,218.803h-6.764c-1.689-1.748-4.311-2.877-7.263-2.877c-1.257,0-2.454,0.206-3.546,0.574
			c-1.528-2.408-4.305-4.027-7.486-4.027h-17.722c-0.002,0-0.005,0.001-0.007,0.001h-15.133v21.866h15.14h10.994h6.728
			c3.181,0,5.958-1.617,7.486-4.027c1.092,0.369,2.289,0.575,3.546,0.575c2.953,0,5.574-1.128,7.263-2.878h6.764
			c2.356,0,4.267-2.061,4.267-4.604C376.242,220.865,374.332,218.803,371.976,218.803z"/>
	</g>
	<g>
		<rect x="464.255" y="337.602" style="fill:#CCCCCC;" width="25.599" height="16.369"/>
		<rect x="463.616" y="338.011" style="fill:#808080;" width="25.6" height="15.55"/>
		<rect x="462.335" y="337.52" style="fill:#B3B3B3;" width="25.599" height="16.533"/>
		<g>
			<rect x="476.223" y="339.13" style="fill:#1A1A1A;" width="2.73" height="3.071"/>
			<rect x="476.223" y="349.369" style="fill:#1A1A1A;" width="2.73" height="3.072"/>
		</g>
		<path d="M412.736,341.136h6.764c1.689-1.749,4.311-2.877,7.264-2.877c1.256,0,2.453,0.206,3.546,0.574
			c1.527-2.409,4.305-4.027,7.485-4.027h17.722c0.002,0,0.005,0.001,0.007,0.001h15.132v21.865h-15.139h-10.994h-6.728
			c-3.181,0-5.958-1.617-7.485-4.026c-1.093,0.368-2.29,0.575-3.546,0.575c-2.953,0-5.574-1.129-7.264-2.879h-6.764
			c-2.357,0-4.268-2.061-4.268-4.603S410.378,341.136,412.736,341.136z"/>
	</g>
</g>
<g>
	<g>
		<path d="M550.893,290.41c-12.079,0-21.869-9.791-21.869-21.869s9.79-21.867,21.869-21.867v4.154
			c-9.783,0-17.714,7.93-17.714,17.713c0,9.785,7.931,17.713,17.714,17.713V290.41z"/>
		<path d="M534.783,236.293c0,9.783,6.327,22.389,16.11,22.389v4.156c-12.079,0-20.267-14.469-20.267-26.545"/>
		<path d="M534.749,236.609c0-12.076-11.396-17.191-23.473-17.191v4.156c9.782,0,19.317,3.254,19.317,13.035H534.749z"/>
		<path d="M550.893,317.984c-12.079,0-21.869-9.793-21.869-21.869c0-12.078,9.79-21.869,21.869-21.869v4.156
			c-9.783,0-17.714,7.93-17.714,17.713c0,9.781,7.931,17.713,17.714,17.713V317.984z"/>
		<path d="M550.893,345.555c-12.079,0-21.869-9.791-21.869-21.869c0-12.076,9.79-21.867,21.869-21.867v4.156
			c-9.783,0-17.714,7.93-17.714,17.711c0,9.785,7.931,17.715,17.714,17.715V345.555z"/>
		<path d="M550.681,290.379c4.668,0,8.451-3.605,8.451-8.053s-3.783-8.055-8.451-8.055l0.091,4.133c2.334,0,4.135,1.697,4.135,3.922
			c0,2.221-1.879,3.924-4.214,3.924L550.681,290.379z"/>
		<path d="M550.681,262.807c4.668,0,8.451-3.605,8.451-8.053s-3.783-8.055-8.451-8.055l0.091,4.135c2.334,0,4.135,1.695,4.135,3.92
			c0,2.223-1.879,3.924-4.214,3.924L550.681,262.807z"/>
		<path d="M550.681,317.951c4.668,0,8.451-3.604,8.451-8.053c0-4.447-3.783-8.053-8.451-8.053l0.091,4.133
			c2.334,0,4.135,1.695,4.135,3.92c0,2.223-1.879,3.926-4.214,3.926L550.681,317.951z"/>
	</g>
	<g>
		<path style="fill:#FFFFFF;stroke:#555555;" d="M483.303,234.463c0,3.729-3.358,6.754-7.5,6.754l0,0c-4.143,0-5.1-3.024-5.1-6.754
			v-23.332c0-3.73,0.957-6.754,5.1-6.754l0,0c4.142,0,7.5,3.023,7.5,6.754V234.463z"/>
		<g>
			<path d="M522.725,216.951v0.847h-1.128v-1.599c-0.263-0.146-0.532-0.275-0.808-0.391v1.021h-1.129v-1.419
				c-0.268-0.09-0.538-0.174-0.806-0.269v1.204h-1.129v-1.619c-0.191-0.071-0.382-0.139-0.573-0.212
				c-0.075-0.035-0.156-0.054-0.234-0.079v1.426h-1.128v-1.527c-0.37,0.051-0.749,0.184-1.13,0.375v-4.724
				c0-3.612-2.299-6.542-5.135-6.542h-26.283v-0.534c0.388,0.141,0.861,0.226,1.375,0.226h10.681c1.188,0,2.17-0.443,2.343-1.021
				h7.83c2.404,0,4.352-0.385,4.352-0.859v-3.362c0-0.475-1.947-0.858-4.352-0.858h-7.83c-0.173-0.579-1.154-1.022-2.343-1.022
				h-10.681c-0.514,0-0.987,0.085-1.375,0.226v-0.776h-6.352v54.674h6.352v-0.575c0.156,0.017,0.317,0.025,0.484,0.025h11.025
				c1.227,0,2.239-0.443,2.418-1.023h8.161c2.48,0,4.491-0.383,4.491-0.857v-3.363c0-0.474-2.011-0.859-4.491-0.859h-8.161
				c-0.179-0.578-1.191-1.021-2.418-1.021h-11.025c-0.167,0-0.328,0.008-0.484,0.025v-0.334h26.283c2.836,0,5.135-2.93,5.135-6.541
				v-4.725c0.38,0.191,0.76,0.325,1.13,0.375v-1.044h1.128v0.942c0.078-0.025,0.159-0.043,0.234-0.079
				c0.19-0.072,0.382-0.14,0.572-0.212v-1.619h1.13v1.204c0.268-0.095,0.536-0.179,0.806-0.268v-1.421h1.129v1.022
				c0.274-0.115,0.544-0.245,0.807-0.391v-1.114h1.129v0.362c1.638-1.303,2.808-3.26,2.806-5.596c0-0.167,0-0.335,0-0.501
				C525.533,220.211,524.363,218.253,522.725,216.951z"/>
		</g>
		<rect x="474.959" y="244.738" width="3.25" height="2.25"/>
		<rect x="474.959" y="198.113" width="3.25" height="2.25"/>
	</g>
	<polygon style="fill:#666666;" points="604.515,358.076 606.315,357.738 606.315,327.813 604.627,327.588 	"/>
	<polygon style="fill:#FFFFFF;stroke:#555555;" points="595.74,356.802 604.965,358.152 604.965,327.326 595.74,328.677 	"/>
	<rect x="596.416" y="323.614" width="4.725" height="38.25"/>
	<path d="M550.409,336.57v0.914h1.218v-1.727c0.284-0.157,0.575-0.298,0.872-0.422v1.103h1.22v-1.532
		c0.289-0.098,0.581-0.188,0.87-0.291v1.301h1.22v-1.749c0.206-0.077,0.412-0.149,0.618-0.228c0.081-0.039,0.169-0.059,0.254-0.087
		v1.541h1.218v-1.649c0.399,0.055,0.809,0.197,1.22,0.404v0.299c0-3.732,2.274-7.768,5.152-8.111
		c7.688-2.834,35.049-5.258,35.049,2.483v28.128c0,7.74-26.82,4.535-35.036,2.493c-2.885-0.251-5.165-3.304-5.165-7.04v-0.781
		c-0.409,0.206-0.82,0.351-1.22,0.404v-1.127h-1.218v1.018c-0.085-0.028-0.173-0.047-0.254-0.086
		c-0.205-0.078-0.412-0.151-0.617-0.229v-1.749h-1.221v1.301c-0.289-0.103-0.579-0.194-0.87-0.289v-1.534h-1.22v1.104
		c-0.296-0.124-0.587-0.265-0.871-0.422v-1.203h-1.219v0.391c-1.77-1.406-3.032-3.52-3.03-6.043c0-0.18,0-0.361,0-0.541
		C547.376,340.09,548.639,337.977,550.409,336.57z"/>
</g>
<g>
	<g>
		<path d="M711.472,291.897c-12.079,0-21.869-9.79-21.869-21.868s9.79-21.867,21.869-21.867v4.154
			c-9.783,0-17.714,7.93-17.714,17.713c0,9.784,7.931,17.713,17.714,17.713V291.897z"/>
		<path d="M695.362,237.781c0,9.783,6.327,22.389,16.11,22.389v4.155c-12.079,0-20.267-14.468-20.267-26.544"/>
		<path d="M695.328,238.098c0-12.077-11.396-17.192-23.473-17.192v4.156c9.782,0,19.317,3.254,19.317,13.036H695.328z"/>
		<path d="M711.472,319.473c-12.079,0-21.869-9.793-21.869-21.869c0-12.079,9.79-21.87,21.869-21.87v4.156
			c-9.783,0-17.714,7.93-17.714,17.714c0,9.781,7.931,17.713,17.714,17.713V319.473z"/>
		<path d="M711.472,347.043c-12.079,0-21.869-9.791-21.869-21.869c0-12.076,9.79-21.867,21.869-21.867v4.156
			c-9.783,0-17.714,7.93-17.714,17.711c0,9.785,7.931,17.715,17.714,17.715V347.043z"/>
		<path d="M711.26,291.866c4.668,0,8.451-3.604,8.451-8.053c0-4.447-3.783-8.055-8.451-8.055l0.091,4.134
			c2.334,0,4.135,1.697,4.135,3.921c0,2.222-1.879,3.925-4.214,3.925L711.26,291.866z"/>
		<path d="M711.26,264.295c4.668,0,8.451-3.606,8.451-8.054s-3.783-8.054-8.451-8.054l0.091,4.135c2.334,0,4.135,1.695,4.135,3.919
			s-1.879,3.924-4.214,3.924L711.26,264.295z"/>
		<path d="M711.26,319.439c4.668,0,8.451-3.604,8.451-8.053c0-4.447-3.783-8.053-8.451-8.053l0.091,4.133
			c2.334,0,4.135,1.695,4.135,3.92c0,2.223-1.879,3.926-4.214,3.926L711.26,319.439z"/>
	</g>
	<g>
		<g>
			<path style="fill:#FFFFFF;stroke:#555555;stroke-width:0.5;" d="M640.102,215.067c0,1.14-0.925,2.064-2.064,2.064h-24.14
				c-1.141,0-2.064-0.925-2.064-2.064l0,0c0-1.14,0.924-2.064,2.064-2.064h24.14C639.177,213.003,640.102,213.928,640.102,215.067
				L640.102,215.067z"/>
			<path style="fill:#FFFFFF;stroke:#555555;stroke-width:0.5;" d="M640.102,231.266c0,1.141-0.925,2.064-2.064,2.064h-24.14
				c-1.141,0-2.064-0.924-2.064-2.064l0,0c0-1.14,0.924-2.063,2.064-2.063h24.14C639.177,229.202,640.102,230.126,640.102,231.266
				L640.102,231.266z"/>
		</g>
		<path d="M669.642,214.591L669.642,214.591l-3.415,0.001c-0.782-3.044-3.014-5.241-5.648-5.241h-9.614h-4.213h-7.952
			c-0.159-1.341-1.285-2.383-2.668-2.383v-0.318h-4.604v33.034h4.604v-0.317c1.383,0,2.509-1.043,2.668-2.384h7.952h4.213h9.614
			c2.635,0,4.867-2.199,5.648-5.24h3.415l0,0h8.893v-7.623v-1.906v-7.622H669.642z"/>
	</g>
	<path d="M717.324,336.091L717.324,336.091l3.415,0.001c0.782-3.043,3.014-5.241,5.648-5.241H736h4.214h7.952
		c0.158-1.341,1.285-2.383,2.668-2.383v-0.317h7.024v33.033h-7.024v-0.317c-1.383,0-2.51-1.043-2.668-2.384h-7.952H736h-9.613
		c-2.635,0-4.867-2.198-5.648-5.24h-3.415l0,0h-8.894v-7.623v-1.906v-7.622H717.324z"/>
	<ellipse style="fill:#333333;" cx="757.669" cy="344.667" rx="2.231" ry="16.517"/>
</g>
<g>
	<g>
		<path d="M567.432,96.252c-14.495,0-26.243-11.749-26.243-26.242c0-14.494,11.748-26.241,26.243-26.241v4.985
			c-11.74,0-21.257,9.516-21.257,21.256c0,11.741,9.517,21.255,21.257,21.255V96.252z"/>
		<path d="M548.1,31.312c0,11.74,7.592,26.867,19.332,26.867v4.986c-14.495,0-24.32-17.361-24.32-31.853"/>
		<path d="M548.059,31.692c0-14.493-13.675-20.631-28.168-20.631v4.987c11.739,0,23.182,3.905,23.182,15.644H548.059z"/>
		<path d="M567.432,129.341c-14.495,0-26.243-11.751-26.243-26.242c0-14.494,11.748-26.243,26.243-26.243v4.987
			c-11.74,0-21.257,9.516-21.257,21.256c0,11.737,9.517,21.255,21.257,21.255V129.341z"/>
		<path d="M567.432,162.426c-14.495,0-26.243-11.749-26.243-26.243c0-14.491,11.748-26.24,26.243-26.24v4.987
			c-11.74,0-21.257,9.516-21.257,21.253c0,11.742,9.517,21.258,21.257,21.258V162.426z"/>
		<path d="M567.178,96.215c5.602,0,10.141-4.327,10.141-9.663c0-5.337-4.539-9.666-10.141-9.666l0.108,4.959
			c2.801,0,4.962,2.037,4.962,4.707c0,2.664-2.255,4.708-5.057,4.708L567.178,96.215z"/>
		<path d="M567.178,63.129c5.602,0,10.141-4.328,10.141-9.665c0-5.336-4.539-9.664-10.141-9.664l0.108,4.962
			c2.801,0,4.962,2.034,4.962,4.702c0,2.669-2.255,4.709-5.057,4.709L567.178,63.129z"/>
		<path d="M567.178,129.302c5.602,0,10.141-4.324,10.141-9.664c0-5.336-4.539-9.663-10.141-9.663l0.108,4.96
			c2.801,0,4.962,2.034,4.962,4.703c0,2.668-2.255,4.711-5.057,4.711L567.178,129.302z"/>
	</g>
	<g>
		<polygon style="fill:#666666;" points="494.021,22.706 485.256,19.389 485.256,5.467 494.021,8.491 		"/>
		<polygon style="fill:#808080;" points="493.001,22.29 491.772,21.796 491.772,7.874 493.001,8.076 		"/>
		<polygon style="fill:#808080;" points="490.921,21.496 489.693,21.002 489.693,7.08 490.921,7.282 		"/>
		<polygon style="fill:#808080;" points="488.994,20.777 487.764,20.284 487.764,6.362 488.994,6.563 		"/>
		<polygon style="fill:#808080;" points="487.032,20.04 485.801,19.546 485.801,5.624 487.032,5.825 		"/>
		<polygon style="fill:#B3B3B3;" points="486.82,19.894 486.189,19.692 486.18,5.851 486.804,6.052 		"/>
		<polygon style="fill:#666666;" points="508.591,8.959 499.909,5.682 499.978,3.578 508.591,6.689 		"/>
		<polygon style="fill:#4D4D4D;" points="499.971,3.604 518.882,3.344 527.598,6.747 508.685,7.008 		"/>
		<polygon style="fill:#4D4D4D;" points="485.256,5.467 499.927,5.511 508.51,8.875 494.077,8.875 		"/>
		<path style="fill:#333333;" d="M517.631,25.825c0,0-6.144-3.076-6.138-3.108c-0.88-0.437-1.793-0.82-2.727-1.161l0.656-0.003
			l18.234-0.084l-0.075-14.753l-19.231,0.088l0.008,1.996l-14.468,0.065c0,0,0.049,13.455-0.021,13.84
			c4.975-0.265,9.533,0.13,14.139,1.867l8.229,4.104L517.631,25.825z"/>
		<polygon style="fill:#808080;" points="487.084,6.324 485.799,5.7 500.079,5.644 501.364,6.097 		"/>
		<polygon style="fill:#808080;" points="489.061,6.979 487.764,6.456 501.868,6.273 503.002,6.727 		"/>
		<polygon style="fill:#808080;" points="490.97,7.716 489.673,7.193 503.777,7.011 504.912,7.464 		"/>
		<polygon style="fill:#808080;" points="493.031,8.51 491.733,7.987 505.767,7.798 506.827,8.271 		"/>
		<polygon style="fill:#B3B3B3;" points="490.725,21.38 490.071,21.128 490.071,7.357 490.695,7.509 		"/>
		<polygon style="fill:#B3B3B3;" points="488.785,20.675 488.155,20.423 488.143,6.589 488.766,6.79 		"/>
		<polygon style="fill:#B3B3B3;" points="492.816,22.187 492.163,21.935 492.149,8.139 492.774,8.303 		"/>
		<polygon style="fill:#B3B3B3;" points="486.744,6.211 486.202,5.908 500.458,5.795 501.137,6.021 		"/>
		<polygon style="fill:#B3B3B3;" points="488.785,6.903 488.143,6.589 502.043,6.362 502.799,6.626 		"/>
		<polygon style="fill:#B3B3B3;" points="490.751,7.609 490.071,7.357 503.934,7.118 504.69,7.382 		"/>
		<polygon style="fill:#B3B3B3;" points="492.804,8.428 492.149,8.139 505.899,7.911 506.655,8.176 		"/>
	</g>
	<g>
		<polygon style="fill:#666666;" points="596.792,168.705 605.556,165.389 605.556,151.467 596.792,154.491 		"/>
		<polygon style="fill:#808080;" points="597.811,168.29 599.041,167.796 599.041,153.874 597.811,154.075 		"/>
		<polygon style="fill:#808080;" points="599.891,167.496 601.12,167.003 601.12,153.079 599.891,153.282 		"/>
		<polygon style="fill:#808080;" points="601.819,166.777 603.048,166.284 603.048,152.362 601.819,152.563 		"/>
		<polygon style="fill:#808080;" points="603.781,166.04 605.011,165.546 605.011,151.624 603.781,151.825 		"/>
		<polygon style="fill:#B3B3B3;" points="603.993,165.894 604.624,165.692 604.632,151.852 604.008,152.053 		"/>
		<polygon style="fill:#666666;" points="582.221,154.959 590.904,151.683 590.834,149.578 582.221,152.689 		"/>
		<polygon style="fill:#4D4D4D;" points="590.841,149.604 571.93,149.345 563.214,152.747 582.127,153.008 		"/>
		<polygon style="fill:#4D4D4D;" points="605.556,151.467 590.885,151.512 582.302,154.876 596.735,154.876 		"/>
		<path style="fill:#1A1A1A;" d="M573.181,171.825c0,0,6.144-3.075,6.138-3.108c0.88-0.436,1.793-0.82,2.727-1.16l-0.656-0.003
			l-18.234-0.085l0.075-14.753l19.231,0.088l-0.008,1.996l14.468,0.065c0,0-0.049,13.456,0.021,13.84
			c-4.975-0.265-9.534,0.132-14.14,1.868l-8.228,4.104L573.181,171.825z"/>
		<polygon style="fill:#808080;" points="603.728,152.325 605.013,151.701 590.734,151.644 589.448,152.098 		"/>
		<polygon style="fill:#808080;" points="601.75,152.979 603.048,152.456 588.944,152.273 587.81,152.728 		"/>
		<polygon style="fill:#808080;" points="599.842,153.717 601.139,153.194 587.036,153.012 585.901,153.464 		"/>
		<polygon style="fill:#808080;" points="597.782,154.511 599.079,153.986 585.045,153.799 583.986,154.271 		"/>
		<polygon style="fill:#B3B3B3;" points="600.086,167.381 600.742,167.128 600.742,153.357 600.118,153.509 		"/>
		<polygon style="fill:#B3B3B3;" points="602.028,166.676 602.658,166.423 602.669,152.59 602.046,152.791 		"/>
		<polygon style="fill:#B3B3B3;" points="597.997,168.188 598.65,167.936 598.663,154.139 598.039,154.303 		"/>
		<polygon style="fill:#B3B3B3;" points="604.069,152.211 604.61,151.909 590.355,151.795 589.675,152.022 		"/>
		<polygon style="fill:#B3B3B3;" points="602.028,152.903 602.669,152.59 588.768,152.362 588.012,152.627 		"/>
		<polygon style="fill:#B3B3B3;" points="600.061,153.609 600.742,153.357 586.878,153.118 586.123,153.382 		"/>
		<polygon style="fill:#B3B3B3;" points="598.008,154.429 598.663,154.139 584.913,153.911 584.157,154.177 		"/>
	</g>
</g>
<g>
	<g>
		<rect x="732.42" y="188.387" width="42.76" height="11.662"/>
		<rect x="732.42" y="187.358" style="fill:#FFFFFF;stroke:#555555;" width="42.76" height="11.661"/>
		<path d="M779.01,167.457c0-1.46-0.762-2.739-1.908-3.47c-0.562-0.656-1.287-1.179-2.142-1.489l-42.173-15.308
			c-1.1-0.399-2.24-0.383-3.271-0.04l-8.11-2.943c-0.886-0.322-2.217,1.23-2.974,3.465l-1.218,3.6
			c-0.757,2.235-0.651,4.309,0.233,4.631l7.246,2.629c0.502,1.475,1.617,2.709,3.15,3.266l4.352,1.579
			c-2.031,0.253-3.604,1.981-3.604,4.081v2.572c0,0.658,0.158,1.277,0.432,1.829c-0.273,0.552-0.432,1.171-0.432,1.829v2.572
			c0,0.658,0.158,1.277,0.432,1.83c-0.273,0.551-0.432,1.172-0.432,1.83v2.571c0,0.658,0.158,1.278,0.432,1.829
			c-0.273,0.552-0.432,1.172-0.432,1.83v2.572c0,2.273,1.842,4.115,4.115,4.115h42.186c2.273,0,4.117-1.842,4.117-4.115v-2.572
			c0-0.658-0.158-1.278-0.434-1.83c0.275-0.551,0.434-1.171,0.434-1.829v-2.571c0-0.658-0.158-1.279-0.434-1.83
			c0.275-0.553,0.434-1.172,0.434-1.83v-2.572c0-0.658-0.158-1.277-0.434-1.829c0.275-0.552,0.434-1.171,0.434-1.829V167.457z"/>
	</g>
	<g>
		<g>
			<rect x="665.411" y="44.189" width="4.773" height="2.824"/>
			<rect x="649.893" y="43.91" style="fill:#FFFFFF;stroke:#555555;" width="16.458" height="3.382"/>
			<path style="fill:#FFFFFF;stroke:#555555;" d="M671.124,47.365h-3.109v-3.527h3.109c0.839,0,1.519,0.68,1.519,1.518
				C672.642,46.195,671.962,47.365,671.124,47.365z"/>
		</g>
		<path d="M642.289,47.496c0,1.466,2.706,2.655,6.043,2.655c3.306,0,5.988-1.167,6.038-2.614h0.087V33.669v-1.486v-3.014h-1.274
			V27.34h1.274v-0.816h-1.274v-1.83h1.274v-0.816h-1.274v-1.829h0.998c-0.769-1.983-3.06-3.422-5.767-3.422
			c-2.708,0-4.999,1.439-5.769,3.422h0.999v1.829h-1.274v0.816h1.274v1.83h-1.274v0.816h1.274v1.829h-1.274v3.014v1.486V47.08
			C642.321,47.216,642.289,47.354,642.289,47.496z"/>
	</g>
	<g>
		<path d="M721.432,86.252c-14.495,0-26.243-11.749-26.243-26.242c0-14.494,11.748-26.241,26.243-26.241v4.985
			c-11.74,0-21.257,9.516-21.257,21.255c0,11.741,9.517,21.255,21.257,21.255V86.252z"/>
		<path d="M702.1,21.312c0,11.74,7.592,26.867,19.332,26.867v4.986c-14.495,0-24.32-17.361-24.32-31.853"/>
		<path d="M702.059,21.692c0-14.493-13.675-20.631-28.168-20.631v4.987c11.739,0,23.182,3.905,23.182,15.644H702.059z"/>
		<path d="M645.891,21.692c0-14.493,13.675-20.631,28.168-20.631v4.987c-11.739,0-23.182,3.905-23.182,15.644H645.891z"/>
		<path d="M721.432,119.341c-14.495,0-26.243-11.751-26.243-26.242c0-14.494,11.748-26.243,26.243-26.243v4.987
			c-11.74,0-21.257,9.516-21.257,21.256c0,11.737,9.517,21.255,21.257,21.255V119.341z"/>
		<path d="M721.432,152.426c-14.495,0-26.243-11.749-26.243-26.243c0-14.491,11.748-26.24,26.243-26.24v4.987
			c-11.74,0-21.257,9.516-21.257,21.253c0,11.742,9.517,21.258,21.257,21.258V152.426z"/>
		<path d="M721.178,86.215c5.602,0,10.141-4.327,10.141-9.663c0-5.337-4.539-9.666-10.141-9.666l0.108,4.959
			c2.801,0,4.962,2.037,4.962,4.707c0,2.664-2.255,4.708-5.057,4.708L721.178,86.215z"/>
		<path d="M721.178,53.128c5.602,0,10.141-4.328,10.141-9.665c0-5.336-4.539-9.664-10.141-9.664l0.108,4.961
			c2.801,0,4.962,2.035,4.962,4.703c0,2.668-2.255,4.709-5.057,4.709L721.178,53.128z"/>
		<path d="M721.178,119.302c5.602,0,10.141-4.324,10.141-9.664c0-5.336-4.539-9.663-10.141-9.663l0.108,4.96
			c2.801,0,4.962,2.034,4.962,4.703c0,2.668-2.255,4.711-5.057,4.711L721.178,119.302z"/>
	</g>
</g>
<g>
	<g>
		<path style="fill:#B3B3B3;" d="M419.688,3.572c0,1.43-1.034,2.587-2.309,2.587H146.965c-1.275,0-2.309-1.158-2.309-2.587l0,0
			c0-1.428,1.034-2.587,2.309-2.587h270.415C418.654,0.985,419.688,2.145,419.688,3.572L419.688,3.572z"/>
		<path style="fill:#999999;" d="M417.379,6.344H146.965c-1.375,0-2.493-1.243-2.493-2.772c0-1.528,1.118-2.772,2.493-2.772h270.415
			c1.374,0,2.493,1.244,2.493,2.772C419.873,5.102,418.753,6.344,417.379,6.344L417.379,6.344z M146.965,1.17
			c-1.171,0-2.124,1.078-2.124,2.402c0,1.325,0.953,2.402,2.124,2.402h270.415c1.171,0,2.124-1.078,2.124-2.402
			c0-1.324-0.953-2.402-2.124-2.402H146.965L146.965,1.17z"/>
	</g>
	<g>
		<path style="fill:#B3B3B3;" d="M423.333,7.617c0,1.429-1.046,2.587-2.338,2.587H146.995c-1.291,0-2.338-1.159-2.338-2.587l0,0
			c0-1.429,1.047-2.587,2.338-2.587h274.001C422.288,5.029,423.333,6.188,423.333,7.617L423.333,7.617z"/>
		<path style="fill:#999999;" d="M420.996,10.388H146.995c-1.391,0-2.523-1.243-2.523-2.771s1.132-2.772,2.523-2.772h274.001
			c1.391,0,2.523,1.244,2.523,2.772S422.386,10.388,420.996,10.388L420.996,10.388z M146.995,5.214
			c-1.187,0-2.154,1.077-2.154,2.402c0,1.325,0.967,2.402,2.154,2.402h274.001c1.187,0,2.154-1.078,2.154-2.402
			c0-1.325-0.968-2.402-2.154-2.402H146.995L146.995,5.214z"/>
	</g>
	<g>
		<path style="fill:#B3B3B3;" d="M425.922,11.661c0,1.429-1.058,2.587-2.361,2.587H147.017c-1.304,0-2.36-1.158-2.36-2.587l0,0
			c0-1.429,1.057-2.587,2.36-2.587h276.544C424.865,9.073,425.922,10.232,425.922,11.661L425.922,11.661z"/>
		<path style="fill:#999999;" d="M423.561,14.433H147.017c-1.403,0-2.545-1.244-2.545-2.772s1.142-2.771,2.545-2.771h276.544
			c1.403,0,2.546,1.243,2.546,2.771S424.964,14.433,423.561,14.433L423.561,14.433z M147.017,9.258c-1.2,0-2.176,1.078-2.176,2.402
			s0.976,2.402,2.176,2.402h276.544c1.199,0,2.177-1.077,2.177-2.402s-0.978-2.402-2.177-2.402H147.017L147.017,9.258z"/>
	</g>
	<g>
		<path style="fill:#B3B3B3;" d="M429.618,15.704c0,1.429-1.07,2.588-2.392,2.588H147.048c-1.322,0-2.392-1.159-2.392-2.588l0,0
			c0-1.428,1.07-2.587,2.392-2.587h280.178C428.547,13.117,429.618,14.276,429.618,15.704L429.618,15.704z"/>
		<path style="fill:#999999;" d="M427.226,18.477H147.048c-1.421,0-2.577-1.244-2.577-2.773c0-1.528,1.156-2.771,2.577-2.771
			h280.178c1.421,0,2.576,1.243,2.576,2.771C429.802,17.233,428.647,18.477,427.226,18.477L427.226,18.477z M147.048,13.302
			c-1.217,0-2.208,1.078-2.208,2.402c0,1.325,0.99,2.403,2.208,2.403h280.178c1.218,0,2.207-1.078,2.207-2.403
			c0-1.324-0.989-2.402-2.207-2.402H147.048L147.048,13.302z"/>
	</g>
	<g>
		<path style="fill:#B3B3B3;" d="M434.422,19.749c0,1.428-1.089,2.587-2.433,2.587H147.088c-1.343,0-2.432-1.159-2.432-2.587l0,0
			c0-1.43,1.089-2.587,2.432-2.587H431.99C433.333,17.161,434.422,18.319,434.422,19.749L434.422,19.749z"/>
		<path style="fill:#999999;" d="M431.99,22.521H147.088c-1.443,0-2.617-1.244-2.617-2.772c0-1.529,1.174-2.772,2.617-2.772H431.99
			c1.443,0,2.617,1.243,2.617,2.772C434.607,21.276,433.433,22.521,431.99,22.521L431.99,22.521z M147.088,17.346
			c-1.24,0-2.248,1.078-2.248,2.403c0,1.325,1.008,2.402,2.248,2.402H431.99c1.239,0,2.248-1.078,2.248-2.402
			c0-1.325-1.009-2.403-2.248-2.403H147.088L147.088,17.346z"/>
	</g>
	<g>
		<path style="fill:#B3B3B3;" d="M439.965,23.792c0,1.429-1.108,2.587-2.477,2.587H147.135c-1.369,0-2.479-1.158-2.479-2.587l0,0
			c0-1.429,1.109-2.587,2.479-2.587h290.354C438.857,21.205,439.965,22.363,439.965,23.792L439.965,23.792z"/>
		<path style="fill:#999999;" d="M437.489,26.564H147.135c-1.468,0-2.663-1.244-2.663-2.772c0-1.529,1.195-2.771,2.663-2.771
			h290.354c1.469,0,2.663,1.243,2.663,2.771C440.152,25.32,438.958,26.564,437.489,26.564L437.489,26.564z M147.135,21.39
			c-1.265,0-2.294,1.078-2.294,2.402s1.029,2.402,2.294,2.402h290.354c1.264,0,2.293-1.078,2.293-2.402s-1.029-2.402-2.293-2.402
			H147.135L147.135,21.39z"/>
	</g>
	<g>
		<path style="fill:#B3B3B3;" d="M442.924,27.836c0,1.429-1.121,2.587-2.504,2.587H147.16c-1.383,0-2.503-1.158-2.503-2.587l0,0
			c0-1.429,1.12-2.587,2.503-2.587H440.42C441.803,25.249,442.924,26.407,442.924,27.836L442.924,27.836z"/>
		<path style="fill:#999999;" d="M440.42,30.608H147.16c-1.482,0-2.688-1.244-2.688-2.772c0-1.529,1.206-2.772,2.688-2.772H440.42
			c1.482,0,2.688,1.243,2.688,2.772C443.109,29.364,441.903,30.608,440.42,30.608L440.42,30.608z M147.16,25.434
			c-1.278,0-2.319,1.078-2.319,2.402s1.041,2.402,2.319,2.402H440.42c1.278,0,2.318-1.078,2.318-2.402s-1.04-2.402-2.318-2.402
			H147.16L147.16,25.434z"/>
	</g>
	<g>
		<path style="fill:#B3B3B3;" d="M447.729,31.88c0,1.429-1.14,2.587-2.545,2.587H147.2c-1.405,0-2.544-1.158-2.544-2.587l0,0
			c0-1.429,1.139-2.588,2.544-2.588h297.984C446.589,29.292,447.729,30.451,447.729,31.88L447.729,31.88z"/>
		<path style="fill:#999999;" d="M445.184,34.652H147.2c-1.505,0-2.729-1.244-2.729-2.772s1.224-2.772,2.729-2.772h297.984
			c1.504,0,2.729,1.244,2.729,2.772S446.688,34.652,445.184,34.652L445.184,34.652z M147.2,29.477c-1.301,0-2.359,1.078-2.359,2.403
			s1.059,2.402,2.359,2.402h297.984c1.3,0,2.359-1.078,2.359-2.402s-1.06-2.403-2.359-2.403H147.2L147.2,29.477z"/>
	</g>
	<g>
		<path style="fill:#B3B3B3;" d="M452.902,35.923c0,1.43-1.156,2.587-2.586,2.587H147.243c-1.429,0-2.587-1.158-2.587-2.587l0,0
			c0-1.428,1.158-2.587,2.587-2.587h303.073C451.746,33.336,452.902,34.495,452.902,35.923L452.902,35.923z"/>
		<path style="fill:#999999;" d="M450.316,38.695H147.243c-1.528,0-2.771-1.243-2.771-2.772c0-1.528,1.243-2.772,2.771-2.772
			h303.073c1.529,0,2.772,1.244,2.772,2.772C453.088,37.452,451.845,38.695,450.316,38.695L450.316,38.695z M147.243,33.521
			c-1.324,0-2.402,1.078-2.402,2.402c0,1.324,1.078,2.402,2.402,2.402h303.073c1.324,0,2.402-1.078,2.402-2.402
			c0-1.325-1.078-2.402-2.402-2.402H147.243L147.243,33.521z"/>
	</g>
	<g>
		<path style="fill:#B3B3B3;" d="M452.902,39.967c0,1.43-1.156,2.588-2.586,2.588H147.243c-1.429,0-2.587-1.158-2.587-2.588l0,0
			c0-1.428,1.158-2.586,2.587-2.586h303.073C451.746,37.38,452.902,38.539,452.902,39.967L452.902,39.967z"/>
		<path style="fill:#999999;" d="M450.316,42.739H147.243c-1.528,0-2.771-1.243-2.771-2.772c0-1.528,1.243-2.771,2.771-2.771
			h303.073c1.529,0,2.772,1.243,2.772,2.771C453.088,41.496,451.845,42.739,450.316,42.739L450.316,42.739z M147.243,37.565
			c-1.324,0-2.402,1.077-2.402,2.402c0,1.325,1.078,2.403,2.402,2.403h303.073c1.324,0,2.402-1.078,2.402-2.403
			c0-1.325-1.078-2.402-2.402-2.402H147.243L147.243,37.565z"/>
	</g>
	<g>
		<path style="fill:#B3B3B3;" d="M452.902,44.012c0,1.428-1.156,2.586-2.586,2.586H147.243c-1.429,0-2.587-1.158-2.587-2.586l0,0
			c0-1.429,1.158-2.587,2.587-2.587h303.073C451.746,41.424,452.902,42.583,452.902,44.012L452.902,44.012z"/>
		<path style="fill:#999999;" d="M450.316,46.783H147.243c-1.528,0-2.771-1.243-2.771-2.771c0-1.529,1.243-2.772,2.771-2.772
			h303.073c1.529,0,2.772,1.243,2.772,2.772C453.088,45.54,451.845,46.783,450.316,46.783L450.316,46.783z M147.243,41.609
			c-1.324,0-2.402,1.078-2.402,2.403c0,1.324,1.078,2.401,2.402,2.401h303.073c1.324,0,2.402-1.077,2.402-2.401
			c0-1.325-1.078-2.403-2.402-2.403H147.243L147.243,41.609z"/>
	</g>
	<g>
		<path style="fill:#B3B3B3;" d="M452.902,48.055c0,1.429-1.156,2.586-2.586,2.586H147.243c-1.429,0-2.587-1.157-2.587-2.586l0,0
			c0-1.429,1.158-2.587,2.587-2.587h303.073C451.746,45.468,452.902,46.626,452.902,48.055L452.902,48.055z"/>
		<path style="fill:#999999;" d="M450.316,50.826H147.243c-1.528,0-2.771-1.243-2.771-2.771s1.243-2.772,2.771-2.772h303.073
			c1.529,0,2.772,1.244,2.772,2.772S451.845,50.826,450.316,50.826L450.316,50.826z M147.243,45.653
			c-1.324,0-2.402,1.077-2.402,2.402c0,1.324,1.078,2.403,2.402,2.403h303.073c1.324,0,2.402-1.079,2.402-2.403
			c0-1.325-1.078-2.402-2.402-2.402H147.243L147.243,45.653z"/>
	</g>
	<g>
		<path style="fill:#B3B3B3;" d="M452.902,52.099c0,1.43-1.156,2.589-2.586,2.589H147.243c-1.429,0-2.587-1.159-2.587-2.589l0,0
			c0-1.43,1.158-2.587,2.587-2.587h303.073C451.746,49.512,452.902,50.669,452.902,52.099L452.902,52.099z"/>
		<path style="fill:#999999;" d="M450.316,54.87H147.243c-1.528,0-2.771-1.242-2.771-2.771c0-1.528,1.243-2.772,2.771-2.772h303.073
			c1.529,0,2.772,1.244,2.772,2.772C453.088,53.628,451.845,54.87,450.316,54.87L450.316,54.87z M147.243,49.696
			c-1.324,0-2.402,1.078-2.402,2.402c0,1.325,1.078,2.402,2.402,2.402h303.073c1.324,0,2.402-1.077,2.402-2.402
			c0-1.324-1.078-2.402-2.402-2.402H147.243L147.243,49.696z"/>
	</g>
	<g>
		<path style="fill:#B3B3B3;" d="M452.902,56.144c0,1.428-1.156,2.588-2.586,2.588H147.243c-1.429,0-2.587-1.16-2.587-2.588l0,0
			c0-1.43,1.158-2.588,2.587-2.588h303.073C451.746,53.556,452.902,54.714,452.902,56.144L452.902,56.144z"/>
		<path style="fill:#999999;" d="M450.316,58.916H147.243c-1.528,0-2.771-1.245-2.771-2.772c0-1.529,1.243-2.772,2.771-2.772
			h303.073c1.529,0,2.772,1.243,2.772,2.772C453.088,57.671,451.845,58.916,450.316,58.916L450.316,58.916z M147.243,53.741
			c-1.324,0-2.402,1.077-2.402,2.402c0,1.324,1.078,2.402,2.402,2.402h303.073c1.324,0,2.402-1.078,2.402-2.402
			c0-1.325-1.078-2.402-2.402-2.402H147.243L147.243,53.741z"/>
	</g>
	<g>
		<path style="fill:#B3B3B3;" d="M452.902,60.188c0,1.428-1.156,2.587-2.586,2.587H147.243c-1.429,0-2.587-1.159-2.587-2.587l0,0
			c0-1.429,1.158-2.588,2.587-2.588h303.073C451.746,57.6,452.902,58.759,452.902,60.188L452.902,60.188z"/>
		<path style="fill:#999999;" d="M450.316,62.959H147.243c-1.528,0-2.771-1.243-2.771-2.771s1.243-2.771,2.771-2.771h303.073
			c1.529,0,2.772,1.243,2.772,2.771S451.845,62.959,450.316,62.959L450.316,62.959z M147.243,57.784
			c-1.324,0-2.402,1.078-2.402,2.403c0,1.324,1.078,2.401,2.402,2.401h303.073c1.324,0,2.402-1.077,2.402-2.401
			c0-1.325-1.078-2.403-2.402-2.403H147.243L147.243,57.784z"/>
	</g>
	<g>
		<path style="fill:#B3B3B3;" d="M452.902,64.231c0,1.428-1.156,2.586-2.586,2.586H147.243c-1.429,0-2.587-1.158-2.587-2.586l0,0
			c0-1.43,1.158-2.588,2.587-2.588h303.073C451.746,61.644,452.902,62.802,452.902,64.231L452.902,64.231z"/>
		<path style="fill:#999999;" d="M450.316,67.003H147.243c-1.528,0-2.771-1.244-2.771-2.771c0-1.53,1.243-2.772,2.771-2.772h303.073
			c1.529,0,2.772,1.242,2.772,2.772C453.088,65.759,451.845,67.003,450.316,67.003L450.316,67.003z M147.243,61.828
			c-1.324,0-2.402,1.077-2.402,2.403c0,1.323,1.078,2.402,2.402,2.402h303.073c1.324,0,2.402-1.079,2.402-2.402
			c0-1.326-1.078-2.403-2.402-2.403H147.243L147.243,61.828z"/>
	</g>
	<g>
		<path style="fill:#B3B3B3;" d="M452.902,68.273c0,1.431-1.156,2.589-2.586,2.589H147.243c-1.429,0-2.587-1.158-2.587-2.589l0,0
			c0-1.428,1.158-2.586,2.587-2.586h303.073C451.746,65.688,452.902,66.846,452.902,68.273L452.902,68.273z"/>
		<path style="fill:#999999;" d="M450.316,71.046H147.243c-1.528,0-2.771-1.242-2.771-2.772c0-1.527,1.243-2.771,2.771-2.771
			h303.073c1.529,0,2.772,1.243,2.772,2.771C453.088,69.804,451.845,71.046,450.316,71.046L450.316,71.046z M147.243,65.872
			c-1.324,0-2.402,1.077-2.402,2.401c0,1.326,1.078,2.402,2.402,2.402h303.073c1.324,0,2.402-1.076,2.402-2.402
			c0-1.324-1.078-2.401-2.402-2.401H147.243L147.243,65.872z"/>
	</g>
	<g>
		<path style="fill:#B25D63;" d="M446.25,72.318c0,1.43-1.134,2.587-2.532,2.587h-296.53c-1.398,0-2.532-1.157-2.532-2.587l0,0
			c0-1.429,1.134-2.588,2.532-2.588h296.53C445.117,69.73,446.25,70.89,446.25,72.318L446.25,72.318z"/>
	</g>
	<g>
		<path style="fill:#B3B3B3;" d="M269.95,155.847c0-1.427,0.56-2.586,1.25-2.586h146.448c0.691,0,1.251,1.159,1.251,2.586l0,0
			c0,1.43-0.56,2.588-1.251,2.588H271.201C270.51,158.435,269.95,157.276,269.95,155.847L269.95,155.847z"/>
		<path style="fill:#999999;" d="M417.649,158.619H271.201c-0.805,0-1.435-1.217-1.435-2.772c0-1.552,0.63-2.771,1.435-2.771
			h146.448c0.805,0,1.436,1.219,1.436,2.771C419.084,157.402,418.454,158.619,417.649,158.619L417.649,158.619z M271.201,153.445
			c-0.514,0-1.065,0.965-1.065,2.401c0,1.438,0.551,2.403,1.065,2.403h146.448c0.515,0,1.065-0.965,1.065-2.403
			c0-1.437-0.551-2.401-1.065-2.401H271.201L271.201,153.445z"/>
	</g>
	<g>
		<path style="fill:#B3B3B3;" d="M269.95,151.804c0-1.43,0.563-2.588,1.257-2.588h147.175c0.694,0,1.256,1.158,1.256,2.588l0,0
			c0,1.431-0.562,2.587-1.256,2.587H271.207C270.513,154.391,269.95,153.234,269.95,151.804L269.95,151.804z"/>
		<path style="fill:#999999;" d="M418.382,154.576H271.207c-0.808,0-1.441-1.218-1.441-2.772s0.633-2.771,1.441-2.771h147.175
			c0.809,0,1.441,1.217,1.441,2.771S419.191,154.576,418.382,154.576L418.382,154.576z M271.207,149.401
			c-0.518,0-1.072,0.965-1.072,2.402c0,1.437,0.554,2.402,1.072,2.402h147.175c0.518,0,1.071-0.966,1.071-2.402
			c0-1.438-0.554-2.402-1.071-2.402H271.207L271.207,149.401z"/>
	</g>
	<g>
		<path style="fill:#B3B3B3;" d="M269.95,147.761c0-1.43,0.581-2.587,1.297-2.587h151.898c0.717,0,1.299,1.157,1.299,2.587l0,0
			c0,1.429-0.582,2.587-1.299,2.587H271.248C270.531,150.348,269.95,149.189,269.95,147.761L269.95,147.761z"/>
		<path style="fill:#999999;" d="M423.146,150.532H271.248c-0.831,0-1.481-1.218-1.481-2.771c0-1.555,0.651-2.771,1.481-2.771
			h151.898c0.832,0,1.481,1.217,1.481,2.771C424.627,149.314,423.978,150.532,423.146,150.532L423.146,150.532z M271.248,145.357
			c-0.538,0-1.112,0.966-1.112,2.403c0,1.437,0.575,2.401,1.112,2.401h151.898c0.538,0,1.111-0.965,1.111-2.401
			c0-1.438-0.573-2.403-1.111-2.403H271.248L271.248,145.357z"/>
	</g>
	<g>
		<path style="fill:#B3B3B3;" d="M269.95,143.717c0-1.43,0.602-2.588,1.344-2.588h157.349c0.741,0,1.345,1.158,1.345,2.588l0,0
			c0,1.427-0.604,2.587-1.345,2.587H271.294C270.552,146.304,269.95,145.144,269.95,143.717L269.95,143.717z"/>
		<path style="fill:#999999;" d="M428.643,146.489H271.294c-0.857,0-1.528-1.218-1.528-2.772s0.671-2.772,1.528-2.772h157.349
			c0.857,0,1.529,1.218,1.529,2.772S429.5,146.489,428.643,146.489L428.643,146.489z M271.294,141.314
			c-0.628,0-1.159,1.1-1.159,2.402c0,1.301,0.531,2.402,1.159,2.402h157.349c0.629,0,1.159-1.102,1.159-2.402
			c0-1.303-0.53-2.402-1.159-2.402H271.294L271.294,141.314z"/>
	</g>
	<g>
		<path style="fill:#B3B3B3;" d="M269.95,139.673c0-1.429,0.617-2.588,1.378-2.588h161.348c0.761,0,1.376,1.159,1.376,2.588l0,0
			c0,1.429-0.615,2.588-1.376,2.588H271.329C270.567,142.261,269.95,141.102,269.95,139.673L269.95,139.673z"/>
		<path style="fill:#999999;" d="M432.676,142.445H271.329c-0.877,0-1.562-1.219-1.562-2.772c0-1.556,0.686-2.771,1.562-2.771
			h161.348c0.876,0,1.562,1.216,1.562,2.771C434.238,141.227,433.552,142.445,432.676,142.445L432.676,142.445z M271.329,137.27
			c-0.647,0-1.193,1.101-1.193,2.403s0.546,2.402,1.193,2.402h161.348c0.645,0,1.191-1.1,1.191-2.402s-0.547-2.403-1.191-2.403
			H271.329L271.329,137.27z"/>
	</g>
	<g>
		<path style="fill:#B3B3B3;" d="M269.95,135.438c0-1.338,0.642-2.422,1.432-2.422h167.735c0.791,0,1.433,1.084,1.433,2.422l0,0
			c0,1.336-0.642,2.421-1.433,2.421H271.382C270.592,137.859,269.95,136.774,269.95,135.438L269.95,135.438z"/>
		<path style="fill:#999999;" d="M439.118,138.044H271.382c-0.906,0-1.616-1.146-1.616-2.605c0-1.461,0.71-2.605,1.616-2.605
			h167.735c0.906,0,1.618,1.145,1.618,2.605C440.736,136.898,440.024,138.044,439.118,138.044L439.118,138.044z M271.382,133.202
			c-0.676,0-1.247,1.023-1.247,2.236c0,1.211,0.571,2.235,1.247,2.235h167.735c0.677,0,1.248-1.024,1.248-2.235
			c0-1.213-0.571-2.236-1.248-2.236H271.382L271.382,133.202z"/>
	</g>
	<g>
		<path style="fill:#B3B3B3;" d="M269.95,131.584c0-1.428,0.656-2.587,1.465-2.587h171.523c0.81,0,1.465,1.159,1.465,2.587l0,0
			c0,1.43-0.655,2.588-1.465,2.588H271.415C270.606,134.172,269.95,133.014,269.95,131.584L269.95,131.584z"/>
		<path style="fill:#999999;" d="M442.938,134.356H271.415c-0.925,0-1.649-1.218-1.649-2.772s0.724-2.772,1.649-2.772h171.523
			c0.924,0,1.648,1.218,1.648,2.772S443.862,134.356,442.938,134.356L442.938,134.356z M271.415,129.182
			c-0.694,0-1.28,1.102-1.28,2.402c0,1.304,0.586,2.402,1.28,2.402h171.523c0.693,0,1.279-1.099,1.279-2.402
			c0-1.301-0.586-2.402-1.279-2.402H271.415L271.415,129.182z"/>
	</g>
	<g>
		<path style="fill:#B3B3B3;" d="M269.95,127.541c0-1.43,0.674-2.587,1.505-2.587h176.248c0.831,0,1.504,1.157,1.504,2.587l0,0
			c0,1.429-0.673,2.587-1.504,2.587H271.455C270.625,130.128,269.95,128.97,269.95,127.541L269.95,127.541z"/>
		<path style="fill:#999999;" d="M447.703,130.313H271.455c-0.947,0-1.689-1.218-1.689-2.772s0.742-2.771,1.689-2.771h176.248
			c0.946,0,1.689,1.217,1.689,2.771S448.649,130.313,447.703,130.313L447.703,130.313z M271.455,125.139
			c-0.716,0-1.32,1.101-1.32,2.402c0,1.303,0.604,2.402,1.32,2.402h176.248c0.716,0,1.319-1.1,1.319-2.402
			c0-1.302-0.604-2.402-1.319-2.402H271.455L271.455,125.139z"/>
	</g>
	<g>
		<path style="fill:#B3B3B3;" d="M269.95,123.497c0-1.429,0.691-2.587,1.542-2.587h180.583c0.852,0,1.541,1.158,1.541,2.587l0,0
			c0,1.43-0.689,2.587-1.541,2.587H271.493C270.641,126.084,269.95,124.927,269.95,123.497L269.95,123.497z"/>
		<path style="fill:#999999;" d="M452.076,126.269H271.493c-0.969,0-1.727-1.217-1.727-2.771s0.758-2.772,1.727-2.772h180.583
			c0.969,0,1.727,1.218,1.727,2.772S453.044,126.269,452.076,126.269L452.076,126.269z M271.493,121.095
			c-0.736,0-1.357,1.1-1.357,2.402c0,1.302,0.622,2.402,1.357,2.402h180.583c0.736,0,1.356-1.101,1.356-2.402
			c0-1.303-0.62-2.402-1.356-2.402H271.493L271.493,121.095z"/>
	</g>
	<g>
		<path style="fill:#B3B3B3;" d="M269.95,119.454c0-1.43,0.702-2.59,1.567-2.59h183.491c0.864,0,1.566,1.16,1.566,2.59l0,0
			c0,1.428-0.702,2.586-1.566,2.586H271.517C270.652,122.04,269.95,120.882,269.95,119.454L269.95,119.454z"/>
		<path style="fill:#999999;" d="M455.008,122.225H271.517c-0.982,0-1.751-1.217-1.751-2.771c0-1.556,0.769-2.773,1.751-2.773
			h183.491c0.981,0,1.75,1.218,1.75,2.773C456.758,121.008,455.99,122.225,455.008,122.225L455.008,122.225z M271.517,117.05
			c-0.749,0-1.382,1.101-1.382,2.404c0,1.301,0.633,2.401,1.382,2.401h183.491c0.748,0,1.38-1.101,1.38-2.401
			c0-1.304-0.632-2.404-1.38-2.404H271.517L271.517,117.05z"/>
	</g>
	<g>
		<path style="fill:#B3B3B3;" d="M269.95,115.408c0-1.427,0.726-2.586,1.619-2.586h189.668c0.896,0,1.619,1.159,1.619,2.586l0,0
			c0,1.43-0.724,2.589-1.619,2.589H271.569C270.676,117.997,269.95,116.838,269.95,115.408L269.95,115.408z"/>
		<path style="fill:#999999;" d="M461.238,118.182H271.569c-1.011,0-1.803-1.218-1.803-2.773c0-1.553,0.792-2.771,1.803-2.771
			h189.668c1.012,0,1.805,1.219,1.805,2.771C463.042,116.964,462.25,118.182,461.238,118.182L461.238,118.182z M271.569,113.007
			c-0.791,0-1.434,1.079-1.434,2.401c0,1.326,0.643,2.403,1.434,2.403h189.668c0.79,0,1.436-1.077,1.436-2.403
			c0-1.322-0.646-2.401-1.436-2.401H271.569L271.569,113.007z"/>
	</g>
	<g>
		<path style="fill:#B3B3B3;" d="M269.95,111.365c0-1.428,0.744-2.587,1.66-2.587h194.417c0.915,0,1.659,1.159,1.659,2.587l0,0
			c0,1.429-0.744,2.587-1.659,2.587H271.61C270.694,113.952,269.95,112.794,269.95,111.365L269.95,111.365z"/>
		<path style="fill:#999999;" d="M466.028,114.136H271.61c-1.018,0-1.844-1.241-1.844-2.771c0-1.528,0.827-2.772,1.844-2.772
			h194.417c1.016,0,1.843,1.244,1.843,2.772C467.871,112.895,467.043,114.136,466.028,114.136L466.028,114.136z M271.61,108.963
			c-0.813,0-1.475,1.079-1.475,2.402c0,1.325,0.662,2.402,1.475,2.402h194.417c0.812,0,1.475-1.077,1.475-2.402
			c0-1.323-0.662-2.402-1.475-2.402H271.61L271.61,108.963z"/>
	</g>
	<g>
		<path style="fill:#B3B3B3;" d="M269.95,107.322c0-1.431,0.761-2.588,1.701-2.588h199.14c0.94,0,1.7,1.157,1.7,2.588l0,0
			c0,1.429-0.76,2.587-1.7,2.587h-199.14C270.711,109.909,269.95,108.751,269.95,107.322L269.95,107.322z"/>
		<path style="fill:#999999;" d="M470.791,110.094h-199.14c-1.04,0-1.885-1.242-1.885-2.771c0-1.528,0.845-2.772,1.885-2.772h199.14
			c1.039,0,1.885,1.244,1.885,2.772C472.675,108.852,471.83,110.094,470.791,110.094L470.791,110.094z M271.651,104.92
			c-0.835,0-1.516,1.078-1.516,2.402c0,1.325,0.68,2.401,1.516,2.401h199.14c0.836,0,1.517-1.076,1.517-2.401
			c0-1.324-0.681-2.402-1.517-2.402H271.651L271.651,104.92z"/>
	</g>
	<g>
		<path style="fill:#B3B3B3;" d="M269.95,103.278c0-1.43,0.761-2.588,1.701-2.588h199.14c0.94,0,1.7,1.158,1.7,2.588l0,0
			c0,1.429-0.76,2.587-1.7,2.587h-199.14C270.711,105.865,269.95,104.707,269.95,103.278L269.95,103.278z"/>
		<path style="fill:#999999;" d="M470.791,106.05h-199.14c-1.04,0-1.885-1.244-1.885-2.771c0-1.529,0.845-2.772,1.885-2.772h199.14
			c1.039,0,1.885,1.243,1.885,2.772C472.675,104.806,471.83,106.05,470.791,106.05L470.791,106.05z M271.651,100.876
			c-0.835,0-1.516,1.077-1.516,2.402c0,1.323,0.68,2.402,1.516,2.402h199.14c0.836,0,1.517-1.079,1.517-2.402
			c0-1.325-0.681-2.402-1.517-2.402H271.651L271.651,100.876z"/>
	</g>
	<g>
		<path style="fill:#B3B3B3;" d="M269.95,99.233c0-1.429,0.761-2.585,1.701-2.585h199.14c0.94,0,1.7,1.156,1.7,2.585l0,0
			c0,1.43-0.76,2.589-1.7,2.589h-199.14C270.711,101.822,269.95,100.663,269.95,99.233L269.95,99.233z"/>
		<path style="fill:#999999;" d="M470.791,102.006h-199.14c-1.04,0-1.885-1.243-1.885-2.772c0-1.528,0.845-2.771,1.885-2.771h199.14
			c1.039,0,1.885,1.243,1.885,2.771C472.675,100.763,471.83,102.006,470.791,102.006L470.791,102.006z M271.651,96.832
			c-0.835,0-1.516,1.077-1.516,2.401c0,1.325,0.68,2.403,1.516,2.403h199.14c0.836,0,1.517-1.078,1.517-2.403
			c0-1.324-0.681-2.401-1.517-2.401H271.651L271.651,96.832z"/>
	</g>
	<g>
		<path style="fill:#B3B3B3;" d="M269.95,95.191c0-1.43,0.761-2.589,1.701-2.589h199.14c0.94,0,1.7,1.159,1.7,2.589l0,0
			c0,1.427-0.76,2.586-1.7,2.586h-199.14C270.711,97.777,269.95,96.618,269.95,95.191L269.95,95.191z"/>
		<path style="fill:#999999;" d="M470.791,97.962h-199.14c-1.04,0-1.885-1.243-1.885-2.771c0-1.53,0.845-2.773,1.885-2.773h199.14
			c1.039,0,1.885,1.243,1.885,2.773C472.675,96.719,471.83,97.962,470.791,97.962L470.791,97.962z M271.651,92.787
			c-0.835,0-1.516,1.078-1.516,2.404c0,1.323,0.68,2.402,1.516,2.402h199.14c0.836,0,1.517-1.079,1.517-2.402
			c0-1.326-0.681-2.404-1.517-2.404H271.651L271.651,92.787z"/>
	</g>
	<g>
		<path style="fill:#B3B3B3;" d="M269.95,91.146c0-1.429,0.761-2.588,1.701-2.588h199.14c0.94,0,1.7,1.159,1.7,2.588l0,0
			c0,1.43-0.76,2.586-1.7,2.586h-199.14C270.711,93.732,269.95,92.576,269.95,91.146L269.95,91.146z"/>
		<path style="fill:#999999;" d="M470.791,93.919h-199.14c-1.04,0-1.885-1.243-1.885-2.772c0-1.527,0.845-2.772,1.885-2.772h199.14
			c1.039,0,1.885,1.245,1.885,2.772C472.675,92.676,471.83,93.919,470.791,93.919L470.791,93.919z M271.651,88.743
			c-0.835,0-1.516,1.079-1.516,2.403c0,1.325,0.68,2.401,1.516,2.401h199.14c0.836,0,1.517-1.076,1.517-2.401
			c0-1.324-0.681-2.403-1.517-2.403H271.651L271.651,88.743z"/>
	</g>
	<g>
		<path style="fill:#B25D63;" d="M269.95,87.103c0-1.43,0.764-2.588,1.704-2.588h199.528c0.94,0,1.704,1.158,1.704,2.588l0,0
			c0,1.429-0.764,2.587-1.704,2.587H271.654C270.714,89.689,269.95,88.531,269.95,87.103L269.95,87.103z"/>
	</g>
	<g>
		<rect x="146.874" style="fill:#666666;" width="12.074" height="75.893"/>
	</g>
	<g>
		<rect x="149.585" style="fill:#4D4D4D;" width="13.059" height="75.893"/>
	</g>
	<g>
		<rect x="144.718" y="35.728" style="fill:#666666;" width="3.943" height="4.188"/>
	</g>
	<g>
		<rect x="146.197" y="35.728" style="fill:#4D4D4D;" width="3.942" height="4.188"/>
	</g>
	<g>
		<g>
			<circle cx="153.033" cy="2.391" r="1.043"/>
		</g>
		<g>
			<circle cx="153.033" cy="5.808" r="1.043"/>
		</g>
		<g>
			<circle cx="153.033" cy="9.225" r="1.043"/>
		</g>
		<g>
			<circle cx="153.033" cy="12.643" r="1.043"/>
		</g>
		<g>
			<circle cx="153.033" cy="16.059" r="1.043"/>
		</g>
		<g>
			<circle cx="153.033" cy="19.476" r="1.043"/>
		</g>
		<g>
			<circle cx="153.033" cy="22.893" r="1.043"/>
		</g>
		<g>
			<circle cx="153.033" cy="26.311" r="1.043"/>
		</g>
		<g>
			<circle cx="153.033" cy="29.728" r="1.043"/>
		</g>
		<g>
			<circle cx="153.033" cy="33.144" r="1.043"/>
		</g>
		<g>
			<circle cx="153.033" cy="43.395" r="1.043"/>
		</g>
		<g>
			<circle cx="153.033" cy="46.812" r="1.043"/>
		</g>
		<g>
			<circle cx="153.033" cy="50.229" r="1.043"/>
		</g>
		<g>
			<circle cx="153.033" cy="53.646" r="1.043"/>
		</g>
		<g>
			<circle cx="153.033" cy="57.062" r="1.043"/>
		</g>
		<g>
			<circle cx="153.033" cy="60.48" r="1.043"/>
		</g>
		<g>
			<circle cx="153.033" cy="63.897" r="1.043"/>
		</g>
		<g>
			<circle cx="153.033" cy="67.314" r="1.043"/>
		</g>
		<g>
			<circle cx="153.033" cy="70.732" r="1.043"/>
		</g>
		<g>
			<circle cx="153.033" cy="74.147" r="1.043"/>
		</g>
	</g>
	<g>
		<g>
			<circle cx="158.948" cy="2.391" r="1.043"/>
		</g>
		<g>
			<circle cx="158.948" cy="5.808" r="1.043"/>
		</g>
		<g>
			<circle cx="158.948" cy="9.225" r="1.043"/>
		</g>
		<g>
			<circle cx="158.948" cy="12.643" r="1.043"/>
		</g>
		<g>
			<circle cx="158.948" cy="16.059" r="1.043"/>
		</g>
		<g>
			<circle cx="158.948" cy="19.476" r="1.043"/>
		</g>
		<g>
			<circle cx="158.948" cy="22.893" r="1.043"/>
		</g>
		<g>
			<circle cx="158.948" cy="26.311" r="1.043"/>
		</g>
		<g>
			<circle cx="158.948" cy="29.728" r="1.043"/>
		</g>
		<g>
			<circle cx="158.948" cy="33.144" r="1.043"/>
		</g>
		<g>
			<circle cx="158.948" cy="36.561" r="1.043"/>
		</g>
		<g>
			<circle cx="158.948" cy="39.979" r="1.043"/>
		</g>
		<g>
			<circle cx="158.948" cy="43.395" r="1.043"/>
		</g>
		<g>
			<circle cx="158.948" cy="46.812" r="1.043"/>
		</g>
		<g>
			<circle cx="158.948" cy="50.229" r="1.043"/>
		</g>
		<g>
			<circle cx="158.948" cy="53.646" r="1.043"/>
		</g>
		<g>
			<circle cx="158.948" cy="57.062" r="1.043"/>
		</g>
		<g>
			<circle cx="158.948" cy="60.48" r="1.043"/>
		</g>
		<g>
			<circle cx="158.948" cy="63.897" r="1.043"/>
		</g>
		<g>
			<circle cx="158.948" cy="67.314" r="1.043"/>
		</g>
		<g>
			<circle cx="158.948" cy="70.732" r="1.043"/>
		</g>
		<g>
			<circle cx="158.948" cy="74.147" r="1.043"/>
		</g>
	</g>
	<g>
		<rect x="359.024" style="fill:#666666;" width="12.074" height="75.893"/>
	</g>
	<g>
		<rect x="361.734" style="fill:#999999;" width="13.06" height="75.893"/>
	</g>
	<g>
		<rect x="356.869" y="35.728" style="fill:#666666;" width="3.942" height="4.188"/>
	</g>
	<g>
		<rect x="358.348" y="35.728" style="fill:#4D4D4D;" width="3.941" height="4.188"/>
	</g>
	<g>
		<g>
			<circle cx="365.184" cy="2.391" r="1.043"/>
		</g>
		<g>
			<circle cx="365.184" cy="5.808" r="1.043"/>
		</g>
		<g>
			<circle cx="365.184" cy="9.225" r="1.043"/>
		</g>
		<g>
			<circle cx="365.184" cy="12.643" r="1.043"/>
		</g>
		<g>
			<circle cx="365.184" cy="16.059" r="1.043"/>
		</g>
		<g>
			<circle cx="365.184" cy="19.476" r="1.043"/>
		</g>
		<g>
			<circle cx="365.184" cy="22.893" r="1.043"/>
		</g>
		<g>
			<circle cx="365.184" cy="26.311" r="1.043"/>
		</g>
		<g>
			<circle cx="365.184" cy="29.728" r="1.043"/>
		</g>
		<g>
			<circle cx="365.184" cy="33.144" r="1.043"/>
		</g>
		<g>
			<circle cx="365.184" cy="43.395" r="1.043"/>
		</g>
		<g>
			<circle cx="365.184" cy="46.812" r="1.043"/>
		</g>
		<g>
			<circle cx="365.184" cy="50.229" r="1.043"/>
		</g>
		<g>
			<circle cx="365.184" cy="53.646" r="1.043"/>
		</g>
		<g>
			<circle cx="365.184" cy="57.062" r="1.043"/>
		</g>
		<g>
			<circle cx="365.184" cy="60.48" r="1.043"/>
		</g>
		<g>
			<circle cx="365.184" cy="63.897" r="1.043"/>
		</g>
		<g>
			<circle cx="365.184" cy="67.314" r="1.043"/>
		</g>
		<g>
			<circle cx="365.184" cy="70.732" r="1.043"/>
		</g>
		<g>
			<circle cx="365.184" cy="74.147" r="1.043"/>
		</g>
	</g>
	<g>
		<g>
			<circle cx="371.097" cy="2.391" r="1.043"/>
		</g>
		<g>
			<circle cx="371.097" cy="5.808" r="1.043"/>
		</g>
		<g>
			<circle cx="371.097" cy="9.225" r="1.043"/>
		</g>
		<g>
			<circle cx="371.097" cy="12.643" r="1.043"/>
		</g>
		<g>
			<circle cx="371.097" cy="16.059" r="1.043"/>
		</g>
		<g>
			<circle cx="371.097" cy="19.476" r="1.043"/>
		</g>
		<g>
			<circle cx="371.097" cy="22.893" r="1.043"/>
		</g>
		<g>
			<circle cx="371.097" cy="26.311" r="1.043"/>
		</g>
		<g>
			<circle cx="371.097" cy="29.728" r="1.043"/>
		</g>
		<g>
			<circle cx="371.097" cy="33.144" r="1.043"/>
		</g>
		<g>
			<circle cx="371.097" cy="36.561" r="1.043"/>
		</g>
		<g>
			<circle cx="371.097" cy="39.979" r="1.043"/>
		</g>
		<g>
			<circle cx="371.097" cy="43.395" r="1.043"/>
		</g>
		<g>
			<circle cx="371.097" cy="46.812" r="1.043"/>
		</g>
		<g>
			<circle cx="371.097" cy="50.229" r="1.043"/>
		</g>
		<g>
			<circle cx="371.097" cy="53.646" r="1.043"/>
		</g>
		<g>
			<circle cx="371.097" cy="57.062" r="1.043"/>
		</g>
		<g>
			<circle cx="371.097" cy="60.48" r="1.043"/>
		</g>
		<g>
			<circle cx="371.097" cy="63.897" r="1.043"/>
		</g>
		<g>
			<circle cx="371.097" cy="67.314" r="1.043"/>
		</g>
		<g>
			<circle cx="371.097" cy="70.732" r="1.043"/>
		</g>
		<g>
			<circle cx="371.097" cy="74.147" r="1.043"/>
		</g>
	</g>
	<g>
		<g>
			<polygon style="fill:#999999;" points="418.345,158.847 418.345,0.19 418.988,0.792 418.988,158.276 418.345,158.847 			"/>
		</g>
		<g>
			<polygon style="fill:#B3B3B3;" points="421.795,155.541 421.795,3.674 418.803,0.872 418.803,158.192 			"/>
			<path style="fill:#999999;" d="M418.618,158.604V0.445l3.362,3.149v152.031L418.618,158.604L418.618,158.604z M418.988,1.298
				v156.484l2.623-2.324V3.754L418.988,1.298L418.988,1.298z"/>
		</g>
		<g>
			<polygon style="fill:#B3B3B3;" points="424.789,152.891 424.789,6.476 421.795,3.674 421.795,155.541 			"/>
			<path style="fill:#999999;" d="M421.611,155.952V3.247l3.361,3.15v146.578L421.611,155.952L421.611,155.952z M421.98,4.1v151.031
				l2.623-2.323V6.557L421.98,4.1L421.98,4.1z"/>
		</g>
		<g>
			<polygon style="fill:#B3B3B3;" points="427.781,150.241 427.781,9.279 424.789,6.476 424.789,152.891 			"/>
			<path style="fill:#999999;" d="M424.603,153.302V6.05l3.363,3.148v141.126L424.603,153.302L424.603,153.302z M424.972,6.902
				V152.48l2.624-2.323V9.358L424.972,6.902L424.972,6.902z"/>
		</g>
		<g>
			<polygon style="fill:#B3B3B3;" points="430.772,147.59 430.772,12.081 427.781,9.279 427.781,150.241 			"/>
			<path style="fill:#999999;" d="M427.596,150.651V8.852L430.959,12v135.674L427.596,150.651L427.596,150.651z M427.966,9.704
				V149.83l2.623-2.322V12.161L427.966,9.704L427.966,9.704z"/>
		</g>
		<g>
			<polygon style="fill:#B3B3B3;" points="433.766,144.938 433.766,14.883 430.772,12.081 430.772,147.59 			"/>
			<path style="fill:#999999;" d="M430.589,148.001V11.654l3.361,3.148v130.22L430.589,148.001L430.589,148.001z M430.959,12.507
				V147.18l2.621-2.324V14.963L430.959,12.507L430.959,12.507z"/>
		</g>
		<g>
			<polygon style="fill:#B3B3B3;" points="436.757,142.288 436.757,17.685 433.766,14.883 433.766,144.938 			"/>
			<path style="fill:#999999;" d="M433.581,145.35V14.457l3.362,3.147v124.769L433.581,145.35L433.581,145.35z M433.951,15.309
				v129.219l2.623-2.322V17.764L433.951,15.309L433.951,15.309z"/>
		</g>
		<g>
			<polygon style="fill:#B3B3B3;" points="439.75,139.638 439.75,20.487 436.757,17.685 436.757,142.288 			"/>
			<path style="fill:#999999;" d="M436.574,142.699V17.259l3.362,3.148v119.315L436.574,142.699L436.574,142.699z M436.943,18.111
				v123.767l2.623-2.323V20.566L436.943,18.111L436.943,18.111z"/>
		</g>
		<g>
			<polygon style="fill:#B3B3B3;" points="442.744,136.987 442.744,23.289 439.75,20.487 439.75,139.638 			"/>
			<path style="fill:#999999;" d="M439.566,140.049V20.061l3.362,3.148v113.862L439.566,140.049L439.566,140.049z M439.936,20.913
				v118.315l2.622-2.323V23.37L439.936,20.913L439.936,20.913z"/>
		</g>
		<g>
			<polygon style="fill:#B3B3B3;" points="445.736,134.336 445.736,26.091 442.744,23.289 442.744,136.987 			"/>
			<path style="fill:#999999;" d="M442.558,137.398V22.862l3.362,3.149V134.42L442.558,137.398L442.558,137.398z M442.928,23.716
				v112.861l2.624-2.324V26.171L442.928,23.716L442.928,23.716z"/>
		</g>
		<g>
			<polygon style="fill:#B3B3B3;" points="448.728,131.686 448.728,28.894 445.736,26.091 445.736,134.336 			"/>
			<path style="fill:#999999;" d="M445.552,134.747V25.665l3.361,3.148v102.956L445.552,134.747L445.552,134.747z M445.92,26.517
				v107.409l2.624-2.323V28.973L445.92,26.517L445.92,26.517z"/>
		</g>
		<g>
			<polygon style="fill:#B3B3B3;" points="451.721,129.035 451.721,31.696 448.728,28.894 448.728,131.686 			"/>
			<path style="fill:#999999;" d="M448.544,132.097V28.467l3.361,3.147v97.504L448.544,132.097L448.544,132.097z M448.914,29.319
				v101.956l2.623-2.323V31.776L448.914,29.319L448.914,29.319z"/>
		</g>
		<g>
			<polygon style="fill:#B3B3B3;" points="454.712,126.385 454.712,34.498 451.721,31.696 451.721,129.035 			"/>
			<path style="fill:#999999;" d="M451.537,129.446V31.27l3.36,3.148v92.051L451.537,129.446L451.537,129.446z M451.906,32.122
				v96.503l2.621-2.322V34.578L451.906,32.122L451.906,32.122z"/>
		</g>
		<g>
			<polygon style="fill:#B3B3B3;" points="457.704,123.733 457.704,37.299 454.712,34.498 454.712,126.385 			"/>
			<path style="fill:#999999;" d="M454.527,126.796V34.072l3.361,3.147v86.599L454.527,126.796L454.527,126.796z M454.897,34.924
				v91.051l2.623-2.324V37.379L454.897,34.924L454.897,34.924z"/>
		</g>
		<g>
			<polygon style="fill:#B3B3B3;" points="460.697,121.083 460.697,40.102 457.704,37.299 457.704,123.733 			"/>
			<path style="fill:#999999;" d="M457.52,124.145V36.874l3.362,3.148v81.146L457.52,124.145L457.52,124.145z M457.888,37.726
				v85.597l2.624-2.322V40.182L457.888,37.726L457.888,37.726z"/>
		</g>
		<g>
			<polygon style="fill:#B3B3B3;" points="463.691,118.433 463.691,42.903 460.697,40.102 460.697,121.083 			"/>
			<path style="fill:#999999;" d="M460.512,121.494V39.676l3.362,3.147v75.693L460.512,121.494L460.512,121.494z M460.882,40.528
				v80.145l2.623-2.323V42.983L460.882,40.528L460.882,40.528z"/>
		</g>
		<g>
			<polygon style="fill:#B3B3B3;" points="466.682,115.782 466.682,45.706 463.691,42.903 463.691,118.433 			"/>
			<path style="fill:#999999;" d="M463.505,118.844V42.477l3.361,3.149v70.24L463.505,118.844L463.505,118.844z M463.875,43.329
				v74.693l2.623-2.323V45.786L463.875,43.329L463.875,43.329z"/>
		</g>
		<g>
			<polygon style="fill:#B3B3B3;" points="469.674,113.131 469.674,48.508 466.682,45.706 466.682,115.782 			"/>
			<path style="fill:#999999;" d="M466.498,116.193V45.28l3.362,3.148v64.787L466.498,116.193L466.498,116.193z M466.867,46.132
				v69.24l2.623-2.324v-64.46L466.867,46.132L466.867,46.132z"/>
		</g>
		<g>
			<polygon style="fill:#B25D63;" points="473.231,109.982 473.231,51.838 469.674,48.508 469.674,113.131 			"/>
		</g>
	</g>
	<g>
		<g>
			<rect x="272.596" y="83.709" style="fill:#66AAD7;" width="12.074" height="75.89"/>
		</g>
		<g>
			<rect x="275.306" y="83.709" style="fill:#338DC9;" width="13.059" height="75.89"/>
		</g>
		<g>
			<rect x="287.626" y="119.436" style="fill:#338DC9;" width="3.942" height="4.188"/>
		</g>
		<g>
			<g>
				<circle cx="278.756" cy="86.1" r="1.043"/>
			</g>
			<g>
				<circle cx="278.756" cy="89.515" r="1.043"/>
			</g>
			<g>
				<circle cx="278.756" cy="92.931" r="1.043"/>
			</g>
			<g>
				<circle cx="278.756" cy="96.35" r="1.043"/>
			</g>
			<g>
				<circle cx="278.756" cy="99.767" r="1.043"/>
			</g>
			<g>
				<circle cx="278.756" cy="103.184" r="1.043"/>
			</g>
			<g>
				<circle cx="278.756" cy="106.601" r="1.043"/>
			</g>
			<g>
				<circle cx="278.756" cy="110.018" r="1.043"/>
			</g>
			<g>
				<circle cx="278.756" cy="113.435" r="1.043"/>
			</g>
			<g>
				<circle cx="278.756" cy="116.852" r="1.043"/>
			</g>
			<g>
				<circle cx="278.756" cy="127.103" r="1.043"/>
			</g>
			<g>
				<circle cx="278.756" cy="130.52" r="1.043"/>
			</g>
			<g>
				<circle cx="278.756" cy="133.938" r="1.043"/>
			</g>
			<g>
				<circle cx="278.756" cy="137.354" r="1.043"/>
			</g>
			<g>
				<circle cx="278.756" cy="140.771" r="1.043"/>
			</g>
			<g>
				<circle cx="278.756" cy="144.188" r="1.043"/>
			</g>
			<g>
				<circle cx="278.756" cy="147.604" r="1.043"/>
			</g>
			<g>
				<circle cx="278.756" cy="151.022" r="1.043"/>
			</g>
			<g>
				<circle cx="278.756" cy="154.438" r="1.043"/>
			</g>
			<g>
				<circle cx="278.756" cy="157.855" r="1.043"/>
			</g>
		</g>
		<g>
			<g>
				<circle cx="284.669" cy="86.1" r="1.043"/>
			</g>
			<g>
				<circle cx="284.669" cy="89.515" r="1.043"/>
			</g>
			<g>
				<circle cx="284.669" cy="92.931" r="1.043"/>
			</g>
			<g>
				<circle cx="284.669" cy="96.35" r="1.043"/>
			</g>
			<g>
				<circle cx="284.669" cy="99.767" r="1.043"/>
			</g>
			<g>
				<circle cx="284.669" cy="103.184" r="1.043"/>
			</g>
			<g>
				<circle cx="284.669" cy="106.601" r="1.043"/>
			</g>
			<g>
				<circle cx="284.669" cy="110.018" r="1.043"/>
			</g>
			<g>
				<circle cx="284.669" cy="113.435" r="1.043"/>
			</g>
			<g>
				<circle cx="284.669" cy="116.852" r="1.043"/>
			</g>
			<g>
				<circle cx="278.756" cy="120.269" r="1.043"/>
			</g>
			<g>
				<circle cx="278.756" cy="123.687" r="1.043"/>
			</g>
			<g>
				<circle cx="284.669" cy="127.103" r="1.043"/>
			</g>
			<g>
				<circle cx="284.669" cy="130.52" r="1.043"/>
			</g>
			<g>
				<circle cx="284.669" cy="133.938" r="1.043"/>
			</g>
			<g>
				<circle cx="284.669" cy="137.354" r="1.043"/>
			</g>
			<g>
				<circle cx="284.669" cy="140.771" r="1.043"/>
			</g>
			<g>
				<circle cx="284.669" cy="144.188" r="1.043"/>
			</g>
			<g>
				<circle cx="284.669" cy="147.604" r="1.043"/>
			</g>
			<g>
				<circle cx="284.669" cy="151.022" r="1.043"/>
			</g>
			<g>
				<circle cx="284.669" cy="154.438" r="1.043"/>
			</g>
			<g>
				<circle cx="284.669" cy="157.855" r="1.043"/>
			</g>
		</g>
	</g>
</g>
<g>
	<path style="fill:#C1C1C1;" d="M11.426,113.482l-0.947,2.528l-1.77-0.664l-2.462,6.574l1.77,0.663l-6.628,17.7l1.011,0.379
		l-1.326,3.539c-1.255,3.352,0.952,6.123,4.46,7.438l15.357,5.751c3.509,1.314,6.993,0.675,8.249-2.677l1.325-3.54l1.265,0.474
		l6.628-17.698l1.77,0.662l2.462-6.574l-1.77-0.663l0.947-2.528L11.426,113.482z"/>
	<path style="fill:#C1C1C1;" d="M80.102,25.862l2.273-1.458l-1.021-1.589l5.909-3.792l1.02,1.59l15.907-10.206l0.583,0.909
		l3.181-2.042c3.012-1.933,6.186-0.359,8.209,2.795l8.856,13.802c2.024,3.155,2.131,6.695-0.881,8.628l-3.181,2.041l0.729,1.136
		L105.78,47.882l1.021,1.591l-5.908,3.791l-1.021-1.591L97.6,53.131L80.102,25.862z"/>
	<path style="fill:#F9ED15;" d="M105.354,40.292c1.458-0.804,2.148-1.839,1.521-2.345l0,0c-0.626-0.505-2.333-0.291-3.792,0.513
		c-34.313,18.907-59.839,50.542-71.071,88.087c-0.478,1.596-0.328,3.311,0.299,3.815l0,0c0.626,0.506,1.492-0.39,1.97-1.984
		C45.514,90.833,71.041,59.198,105.354,40.292z"/>
	<path d="M100.487,36.365c1.431-0.824,2.099-1.878,1.472-2.385l0,0c-0.625-0.505-2.312-0.271-3.741,0.555
		c-33.684,19.415-59.21,51.051-71.072,88.088c-0.503,1.572-0.376,3.268,0.25,3.773l0,0c0.627,0.506,1.515-0.37,2.02-1.943
		C41.276,87.415,66.803,55.78,100.487,36.365z"/>
	<path style="fill:#009245;" d="M95.57,32.398c1.431-0.825,2.099-1.878,1.471-2.384l0,0c-0.627-0.505-2.311-0.272-3.742,0.553
		C59.616,49.981,34.09,81.617,22.229,118.654c-0.504,1.573-0.377,3.27,0.249,3.775l0,0c0.627,0.506,1.517-0.372,2.02-1.944
		C36.36,83.448,61.886,51.812,95.57,32.398z"/>
	<path style="fill:#D4145A;" d="M90.652,28.431c1.431-0.824,2.099-1.878,1.472-2.385l0,0c-0.626-0.505-2.312-0.271-3.742,0.554
		C54.7,46.015,29.172,77.65,17.311,114.688c-0.504,1.573-0.376,3.269,0.249,3.774l0,0c0.626,0.507,1.516-0.37,2.02-1.943
		C31.442,79.48,56.969,47.846,90.652,28.431z"/>
	<path style="fill:#E6E6E6;" d="M10.708,113.941l-0.947,2.529l-1.77-0.663l-2.462,6.575l1.77,0.661l-6.629,17.701l1.012,0.378
		l-1.326,3.54c-1.254,3.351,0.951,6.123,4.461,7.438l15.357,5.751c3.509,1.314,6.993,0.675,8.248-2.677l1.326-3.54l1.265,0.473
		l6.628-17.698l1.771,0.663l2.462-6.574l-1.77-0.663l0.948-2.529L10.708,113.941z"/>
	<path style="fill:#CCCCCC;" d="M21.021,150.795L8.18,145.903c-2.928-1.116-5.378-1.66-5.795,0.568l-0.031-0.012
		c-0.387,2.248,1.863,3.896,4.801,4.996l12.855,4.811c2.867,1.073,5.319,1.24,5.801-0.858l0.039,0.017
		C26.259,153.183,23.955,151.913,21.021,150.795z"/>
	<g>
		<g>
			
				<ellipse transform="matrix(-0.5829 0.8125 -0.8125 -0.5829 129.9921 229.4791)" style="fill:#666666;" cx="6.099" cy="148.103" rx="1.328" ry="1.596"/>
			
				<ellipse transform="matrix(-0.5832 0.8124 -0.8124 -0.5832 129.9671 229.5188)" style="fill:#808080;" cx="6.099" cy="148.104" rx="1.123" ry="1.35"/>
		</g>
		<g>
			
				<ellipse transform="matrix(-0.5832 0.8124 -0.8124 -0.5832 139.8897 228.4174)" style="fill:#666666;" cx="11.341" cy="150.1" rx="1.327" ry="1.596"/>
			
				<ellipse transform="matrix(-0.583 0.8125 -0.8125 -0.583 139.9006 228.3984)" style="fill:#808080;" cx="11.34" cy="150.1" rx="1.123" ry="1.349"/>
		</g>
		<g>
			
				<ellipse transform="matrix(-0.5828 0.8126 -0.8126 -0.5828 149.842 227.2642)" style="fill:#666666;" cx="16.582" cy="152.097" rx="1.328" ry="1.595"/>
			
				<ellipse transform="matrix(-0.583 0.8125 -0.8125 -0.583 149.8208 227.2992)" style="fill:#808080;" cx="16.582" cy="152.096" rx="1.123" ry="1.349"/>
		</g>
		<g>
			
				<ellipse transform="matrix(-0.5829 0.8126 -0.8126 -0.5829 159.7539 226.1779)" style="fill:#666666;" cx="21.823" cy="154.093" rx="1.394" ry="1.675"/>
			
				<ellipse transform="matrix(-0.583 0.8125 -0.8125 -0.583 159.7411 226.2039)" style="fill:#808080;" cx="21.823" cy="154.094" rx="1.123" ry="1.351"/>
		</g>
	</g>
	<path style="fill:#E6E6E6;" d="M79.391,24.594l2.272-1.458l-1.021-1.591l5.908-3.791l1.021,1.59l15.907-10.206l0.583,0.909
		l3.181-2.042c3.012-1.932,6.186-0.358,8.209,2.795l8.855,13.802c2.024,3.155,2.132,6.696-0.88,8.628l-3.182,2.041l0.729,1.137
		l-15.907,10.207l1.021,1.59l-5.908,3.791l-1.021-1.591l-2.273,1.458L79.391,24.594z"/>
	<path style="fill:#CCCCCC;" d="M117.589,26.917l-7.485-11.523c-1.708-2.628-2.756-4.909-0.666-5.785l-0.017-0.028
		c2.116-0.852,4.201,1.001,5.894,3.641l7.411,11.554c1.652,2.576,2.332,4.938,0.382,5.851l0.023,0.036
		C121.026,31.535,119.3,29.55,117.589,26.917z"/>
	<g>
		<g>
			
				<ellipse transform="matrix(0.6713 -0.7412 0.7412 0.6713 27.1941 87.1144)" style="fill:#666666;" cx="111.816" cy="12.897" rx="1.328" ry="1.596"/>
			
				<ellipse transform="matrix(0.6713 -0.7412 0.7412 0.6713 27.1995 87.1205)" style="fill:#808080;" cx="111.816" cy="12.897" rx="1.123" ry="1.35"/>
		</g>
		<g>
			
				<ellipse transform="matrix(0.6716 -0.7409 0.7409 0.6716 24.6846 90.8907)" style="fill:#666666;" cx="114.872" cy="17.6" rx="1.328" ry="1.595"/>
			
				<ellipse transform="matrix(0.6716 -0.7409 0.7409 0.6716 24.6867 90.8938)" style="fill:#808080;" cx="114.872" cy="17.6" rx="1.123" ry="1.35"/>
		</g>
		<g>
			
				<ellipse transform="matrix(0.6717 -0.7408 0.7408 0.6717 22.194 94.6877)" style="fill:#666666;" cx="117.927" cy="22.304" rx="1.327" ry="1.596"/>
			
				<ellipse transform="matrix(0.6716 -0.7409 0.7409 0.6716 22.204 94.7006)" style="fill:#808080;" cx="117.927" cy="22.304" rx="1.123" ry="1.35"/>
		</g>
		<g>
			
				<ellipse transform="matrix(0.6714 -0.7411 0.7411 0.6714 19.741 98.5355)" style="fill:#666666;" cx="120.983" cy="27.007" rx="1.394" ry="1.676"/>
			
				<ellipse transform="matrix(0.6716 -0.7409 0.7409 0.6716 19.7213 98.5082)" style="fill:#808080;" cx="120.982" cy="27.008" rx="1.123" ry="1.35"/>
		</g>
	</g>
</g>
</svg>
